<?xml version="1.0" encoding="utf-8"?>
<!-- Generator: Adobe Illustrator 24.2.3, SVG Export Plug-In . SVG Version: 6.00 Build 0)  -->
<svg version="1.1" id="Layer_1" xmlns="http://www.w3.org/2000/svg" xmlns:xlink="http://www.w3.org/1999/xlink" x="0px" y="0px"
	 viewBox="0 0 490 189.66" style="enable-background:new 0 0 490 189.66;" xml:space="preserve">
<style type="text/css">
	.st0{fill:#1D252C;}
	.st1{fill:#70D44B;}
	.st2{fill:#DD6246;}
	.st3{fill:#323E48;}
	.st4{fill:#EBC164;}
	.st5{fill:#FFFFFF;}
	.st6{fill:#84B060;}
	.st7{fill:#D2B08E;}
	.st8{fill:#F6D6CE;}
	.st9{fill:#B99479;}
	.st10{fill:#C9A083;}
</style>
<g>
	<g>
		<path class="st0" d="M216.73,56.97c0-8.6,6.56-15.03,15.41-15.03c8.81,0,15.41,6.4,15.41,15.03s-6.61,15.03-15.41,15.03
			C223.29,72.01,216.73,65.57,216.73,56.97z M245.35,56.97c0-7.5-5.67-13.04-13.21-13.04c-7.58,0-13.25,5.55-13.25,13.04
			c0,7.49,5.67,13.04,13.25,13.04C239.68,70.02,245.35,64.47,245.35,56.97z"/>
		<path class="st0" d="M284.1,71.8l-7.07-9.91c-0.93,0.13-1.86,0.21-2.88,0.21h-8.47v9.7h-2.16V42.15h10.63
			c7.45,0,11.94,3.73,11.94,9.99c0,4.7-2.54,7.96-6.95,9.27l7.41,10.38H284.1z M274.15,60.19c6.35,0,9.74-2.96,9.74-8.05
			c0-5.12-3.39-8.05-9.74-8.05h-8.47v16.09H274.15z"/>
		<path class="st0" d="M323.66,57.1h2.07v11.1c-2.67,2.54-6.52,3.81-10.59,3.81c-8.94,0-15.5-6.39-15.5-15.03
			s6.56-15.03,15.54-15.03c4.28,0,8.05,1.36,10.67,4.07l-1.36,1.44c-2.58-2.54-5.67-3.51-9.27-3.51c-7.71,0-13.42,5.59-13.42,13.04
			c0,7.41,5.72,13.04,13.42,13.04c3.13,0,6.01-0.76,8.43-2.71V57.1z"/>
		<path class="st0" d="M362.03,63.45h-17.19l-3.77,8.34h-2.33l13.64-29.64h2.16l13.64,29.64h-2.33L362.03,63.45z M361.22,61.63
			l-7.79-17.11l-7.75,17.11H361.22z"/>
		<path class="st0" d="M406.15,42.15V71.8h-1.78l-20.2-25.75V71.8h-2.16V42.15h1.82l20.16,25.75V42.15H406.15z"/>
		<path class="st0" d="M424.96,42.15h2.16V71.8h-2.16V42.15z"/>
		<path class="st0" d="M443.08,56.97c0-8.64,6.56-15.03,15.37-15.03c4.19,0,7.96,1.36,10.55,4.11l-1.36,1.4
			c-2.54-2.5-5.63-3.51-9.11-3.51c-7.58,0-13.3,5.59-13.3,13.04s5.72,13.04,13.3,13.04c3.47,0,6.56-1.06,9.11-3.56l1.36,1.4
			c-2.58,2.75-6.35,4.15-10.55,4.15C449.65,72.01,443.08,65.61,443.08,56.97z"/>
		<path class="st0" d="M243.7,83.78v29.64h-2.16v-14.1h-19.82v14.1h-2.16V83.78h2.16v13.64h19.82V83.78H243.7z"/>
		<path class="st0" d="M280.84,105.08h-17.19l-3.77,8.34h-2.33l13.64-29.64h2.16l13.64,29.64h-2.33L280.84,105.08z M280.04,103.26
			l-7.79-17.11l-7.75,17.11H280.04z"/>
		<path class="st0" d="M321.41,113.43l-7.07-9.91c-0.93,0.13-1.86,0.21-2.88,0.21h-8.47v9.7h-2.16V83.78h10.63
			c7.45,0,11.94,3.73,11.94,9.99c0,4.7-2.54,7.96-6.95,9.27l7.41,10.38H321.41z M311.46,101.82c6.35,0,9.74-2.96,9.74-8.05
			c0-5.12-3.39-8.05-9.74-8.05h-8.47v16.09H311.46z"/>
		<path class="st0" d="M363.46,83.78l-13.21,29.64h-2.16l-13.21-29.64h2.37l11.98,26.85l11.98-26.85H363.46z"/>
		<path class="st0" d="M397.17,111.48v1.95h-20.45V83.78h19.82v1.95h-17.66v11.69h15.8v1.91h-15.8v12.15H397.17z"/>
		<path class="st0" d="M410.51,109.61l0.97-1.61c2.03,2.12,5.8,3.73,9.78,3.73c5.93,0,8.55-2.58,8.55-5.8
			c0-8.89-18.51-3.56-18.51-14.48c0-4.19,3.22-7.88,10.5-7.88c3.26,0,6.65,1.02,8.94,2.67l-0.81,1.74c-2.46-1.69-5.46-2.5-8.13-2.5
			c-5.76,0-8.34,2.67-8.34,5.93c0,8.89,18.51,3.64,18.51,14.4c0,4.19-3.35,7.83-10.67,7.83
			C416.91,113.64,412.68,111.99,410.51,109.61z"/>
		<path class="st0" d="M453.03,85.73h-10.67v-1.95h23.5v1.95h-10.67v27.7h-2.16V85.73z"/>
		<path class="st0" d="M219.56,125.41h11.73c9.4,0,15.75,6.18,15.75,14.82s-6.35,14.82-15.75,14.82h-11.73V125.41z M231.12,153.11
			c8.38,0,13.76-5.34,13.76-12.87s-5.38-12.87-13.76-12.87h-9.4v25.75H231.12z"/>
		<path class="st0" d="M263.01,125.41h2.16v29.64h-2.16V125.41z"/>
		<path class="st0" d="M305.15,140.36h2.08v11.1c-2.67,2.54-6.52,3.81-10.59,3.81c-8.94,0-15.5-6.39-15.5-15.03
			s6.56-15.03,15.54-15.03c4.28,0,8.05,1.36,10.67,4.07L306,130.7c-2.58-2.54-5.67-3.51-9.27-3.51c-7.71,0-13.42,5.59-13.42,13.04
			c0,7.41,5.72,13.04,13.42,13.04c3.13,0,6.01-0.76,8.43-2.71V140.36z"/>
		<path class="st0" d="M325.18,125.41h2.16v29.64h-2.16V125.41z"/>
		<path class="st0" d="M351.82,127.36h-10.67v-1.95h23.5v1.95h-10.67v27.7h-2.16V127.36z"/>
		<path class="st0" d="M395.31,146.71h-17.19l-3.77,8.34h-2.33l13.64-29.64h2.16l13.64,29.64h-2.33L395.31,146.71z M394.51,144.89
			l-7.79-17.11l-7.75,17.11H394.51z"/>
		<path class="st0" d="M415.3,125.41h2.16v27.7h17.07v1.95H415.3V125.41z"/>
	</g>
	<g id="XMLID_168_">
		<path id="XMLID_1969_" class="st1" d="M45.17,74.2v53.27c13.23,4.52,24.32,13.18,32.28,24.36h69.19c5-7.33,11.48-13.7,18.89-18.7
			V74.2H45.17z"/>
		<g id="XMLID_1935_">
			<g id="XMLID_1962_">
				<path id="XMLID_1966_" class="st2" d="M81.73,71.05v-20.6l-3.12-3.05c-0.25-0.24-0.28-0.63-0.08-0.91L92.31,26.9h31.67
					l12.34,18.8c0.15,0.23,0.23,0.49,0.23,0.76v1.72c0,0.49-0.26,0.94-0.67,1.19l-1.65,0.99v20.96L81.73,71.05z"/>
				<path id="XMLID_1963_" class="st3" d="M134.22,72.22C134.22,72.22,134.22,72.22,134.22,72.22l-52.5-0.27
					c-0.5,0-0.9-0.41-0.9-0.9V50.83l-2.85-2.78c-0.57-0.55-0.65-1.43-0.19-2.08l13.78-19.59c0.17-0.24,0.44-0.38,0.74-0.38h31.67
					c0.3,0,0.59,0.15,0.75,0.41l12.34,18.8c0.25,0.37,0.38,0.81,0.38,1.25v1.72c0,0.8-0.43,1.55-1.11,1.96l-1.21,0.73v20.45
					c0,0.24-0.1,0.47-0.27,0.64C134.69,72.13,134.46,72.22,134.22,72.22z M82.63,70.15l50.69,0.26V50.37c0-0.32,0.17-0.61,0.44-0.77
					l1.65-0.99c0.14-0.09,0.23-0.25,0.23-0.41v-1.72c0-0.09-0.03-0.19-0.08-0.26L123.5,27.8H92.78L79.36,46.87l3,2.93
					c0.17,0.17,0.27,0.4,0.27,0.65V70.15z"/>
			</g>
			<g id="XMLID_1955_">
				<path id="XMLID_1959_" class="st4" d="M93.79,36.48l10.16,13.7v17.28c0,0-10.43-0.06-15.83,0.86c0-3.91,0-23.7,0-23.7
					L93.79,36.48z"/>
				<path id="XMLID_1956_" class="st3" d="M88.12,69.21c-0.21,0-0.42-0.07-0.58-0.21c-0.2-0.17-0.32-0.42-0.32-0.69v-23.7
					c0-0.18,0.06-0.36,0.16-0.52l5.67-8.13c0.17-0.24,0.44-0.38,0.73-0.39c0.27-0.02,0.56,0.13,0.74,0.36l10.16,13.7
					c0.11,0.16,0.18,0.34,0.18,0.54v17.28c0,0.24-0.1,0.47-0.27,0.64c-0.17,0.17-0.4,0.26-0.64,0.26c-0.02,0-0.1,0-0.3,0
					c-1.73,0-10.62,0.04-15.38,0.84C88.22,69.2,88.17,69.21,88.12,69.21z M89.02,44.89v22.37c4.62-0.62,11.55-0.7,14.03-0.71V50.47
					l-9.24-12.45L89.02,44.89z"/>
			</g>
			<g id="XMLID_1950_">
				<circle id="XMLID_1954_" class="st5" cx="94.57" cy="48.39" r="3.65"/>
				<path id="XMLID_1951_" class="st3" d="M94.57,52.94c-2.51,0-4.55-2.04-4.55-4.55c0-2.51,2.04-4.55,4.55-4.55
					c2.51,0,4.55,2.04,4.55,4.55C99.12,50.9,97.08,52.94,94.57,52.94z M94.57,45.64c-1.51,0-2.75,1.23-2.75,2.75
					c0,1.51,1.23,2.75,2.75,2.75s2.75-1.23,2.75-2.75C97.31,46.88,96.08,45.64,94.57,45.64z"/>
			</g>
			<g id="XMLID_1943_">
				<path id="XMLID_1947_" class="st4" d="M111.16,50.5l-0.2,21.64l4.8-5.05v-5.75c0-1.93,1.57-3.5,3.5-3.5c1.93,0,3.5,1.57,3.5,3.5
					v5.75h4.6V50.5H111.16z"/>
				<path id="XMLID_1944_" class="st3" d="M110.97,73.04c-0.11,0-0.23-0.02-0.34-0.07c-0.34-0.14-0.57-0.47-0.56-0.84l0.2-21.64
					c0-0.49,0.41-0.89,0.9-0.89h16.2c0.5,0,0.9,0.4,0.9,0.9v16.59c0,0.5-0.4,0.9-0.9,0.9h-4.6c-0.5,0-0.9-0.4-0.9-0.9v-5.75
					c0-1.43-1.17-2.6-2.6-2.6c-1.43,0-2.6,1.17-2.6,2.6v5.75c0,0.23-0.09,0.45-0.25,0.62l-4.8,5.05
					C111.45,72.95,111.21,73.04,110.97,73.04z M112.06,51.4l-0.17,18.46l2.97-3.13v-5.39c0-2.43,1.97-4.4,4.4-4.4s4.4,1.97,4.4,4.4
					v4.85h2.8V51.4H112.06z"/>
			</g>
			<g id="XMLID_1936_">
				<polygon id="XMLID_1940_" class="st4" points="107.36,43.88 127,43.88 119.99,33.68 100.14,33.68 				"/>
				<path id="XMLID_1937_" class="st3" d="M127,44.78h-19.64c-0.29,0-0.57-0.14-0.74-0.38L99.4,34.2c-0.2-0.28-0.22-0.64-0.07-0.93
					c0.16-0.3,0.46-0.49,0.8-0.49h19.85c0.3,0,0.57,0.15,0.74,0.39l7.01,10.2c0.19,0.28,0.21,0.63,0.05,0.93S127.33,44.78,127,44.78
					z M107.83,42.98h17.46l-5.77-8.4h-17.64L107.83,42.98z"/>
			</g>
		</g>
		<g id="XMLID_1893_">
			<g id="XMLID_1899_">
				<g id="XMLID_1930_">
					<path id="XMLID_1934_" class="st1" d="M97.8,64.05c-2.23,0.98-4.45,1.99-6.66,3.04c8.34,12.35,17.61,25.91,26.04,38.2
						c0.79-0.58,1.59-1.15,2.39-1.71C119.56,103.58,103.33,77.7,97.8,64.05z"/>
					<path id="XMLID_1931_" class="st3" d="M117.18,106.17c-0.05,0-0.1,0-0.15-0.01c-0.24-0.04-0.44-0.18-0.58-0.37
						c-8.12-11.84-17.56-25.63-26.05-38.21c-0.14-0.21-0.19-0.48-0.12-0.73c0.07-0.25,0.24-0.46,0.48-0.57
						c2.22-1.05,4.44-2.06,6.69-3.05c0.22-0.1,0.47-0.1,0.69-0.01c0.22,0.09,0.4,0.27,0.49,0.49c5.46,13.49,21.34,38.81,21.68,39.35
						c0.06,0.08,0.1,0.17,0.12,0.27c0.1,0.36-0.04,0.74-0.34,0.96c-0.8,0.56-1.59,1.13-2.38,1.71
						C117.55,106.11,117.37,106.17,117.18,106.17z M92.45,67.45c8.16,12.07,17.13,25.2,24.95,36.59c0.33-0.24,0.67-0.48,1-0.72
						c-3.9-5.38-17.01-28.61-21.07-38.1C95.7,65.95,94.07,66.69,92.45,67.45z"/>
				</g>
				<g id="XMLID_1925_">
					<path id="XMLID_1929_" class="st1" d="M118.58,104.38c-0.01,0.01-8.43-13.89-29.95-44.22c-1.86,1.32-3.71,2.66-5.54,4.02
						c24.77,31.07,32.42,42.43,32.45,42.4C116.55,105.84,117.56,105.11,118.58,104.38z"/>
					<path id="XMLID_1926_" class="st3" d="M115.55,107.47c-0.04,0-0.08,0-0.12-0.01c-0.39-0.05-0.47-0.18-0.96-0.86
						c-6.63-9.38-18.01-24.25-32.06-41.87c-0.15-0.19-0.22-0.43-0.19-0.67c0.03-0.24,0.16-0.45,0.35-0.6
						c1.83-1.37,3.69-2.71,5.56-4.03c0.4-0.28,0.95-0.19,1.23,0.21c18.49,26.05,27.51,40.29,29.83,44.03l0.13,0.2c0,0,0,0,0,0
						c0.27,0.4,0.17,0.93-0.22,1.21c-1.01,0.72-2.02,1.46-3.02,2.2C115.92,107.41,115.73,107.47,115.55,107.47z M84.36,64.35
						c13.69,17.18,24.81,31.7,31.39,40.99c0.55-0.4,1.1-0.8,1.65-1.2c-2.69-4.31-11.54-18.17-28.97-42.75
						C87.06,62.37,85.7,63.35,84.36,64.35z"/>
				</g>
				<g id="XMLID_1920_">
					<path id="XMLID_1924_" class="st1" d="M81.22,73.1c1.3-2.04,2.62-4.06,3.98-6.06c13.51,10.01,31.88,38.34,31.95,38.27
						c-0.79,0.58-1.58,1.16-2.37,1.74C114.78,107.06,94.11,81.44,81.22,73.1z"/>
					<path id="XMLID_1921_" class="st3" d="M114.77,107.94c-0.4,0-0.65-0.31-0.79-0.47c-3.51-4.3-21.62-26.11-33.24-33.63
						c-0.41-0.26-0.53-0.81-0.27-1.22c1.3-2.04,2.63-4.07,3.99-6.09c0.14-0.2,0.35-0.34,0.58-0.38c0.23-0.04,0.48,0.02,0.68,0.16
						c7.89,5.85,18.75,18.79,31.42,37.43c0.35,0.52,0.58,0.85,0.66,0.97c0.09,0.1,0.15,0.22,0.19,0.35c0.1,0.36-0.04,0.73-0.33,0.95
						c-0.79,0.57-1.58,1.15-2.36,1.74c-0.08,0.06-0.16,0.1-0.25,0.13C114.96,107.92,114.86,107.94,114.77,107.94z M82.44,72.84
						c11.43,7.78,28.21,27.78,32.5,32.99c0.33-0.25,0.66-0.49,1-0.73c-0.07-0.11-0.15-0.23-0.24-0.36
						C100.52,82.43,90.94,72.62,85.41,68.3C84.41,69.81,83.41,71.32,82.44,72.84z"/>
				</g>
				<g id="XMLID_1915_">
					<path id="XMLID_1919_" class="st1" d="M126.58,114.6c-1.35,0.96-2.69,1.94-4.03,2.93c-2.89-3.9-4.89-6.58-7.77-10.48
						c1.39-1.04,2.8-2.06,4.22-3.07C121.83,107.93,123.76,110.65,126.58,114.6z"/>
					<path id="XMLID_1916_" class="st3" d="M122.56,118.42c-0.04,0-0.09,0-0.13-0.01c-0.23-0.03-0.44-0.16-0.58-0.35l-7.77-10.48
						c-0.29-0.39-0.21-0.95,0.18-1.24c1.4-1.04,2.81-2.07,4.23-3.08c0.4-0.28,0.95-0.19,1.23,0.21l7.58,10.62
						c0.14,0.19,0.19,0.43,0.15,0.66c-0.04,0.23-0.17,0.44-0.36,0.58c-1.35,0.96-2.68,1.93-4.01,2.92
						C122.93,118.35,122.75,118.42,122.56,118.42z M116.02,107.23l6.72,9.06c0.86-0.64,1.73-1.27,2.61-1.9l-6.55-9.18
						C117.87,105.88,116.94,106.55,116.02,107.23z"/>
				</g>
				<g id="XMLID_1910_">
					<path id="XMLID_1914_" class="st1" d="M117.66,107.37c-0.08,0.12-14.65-18.82-35.65-29.31c-0.99,2.15-1.95,4.31-2.89,6.48
						c21.76,9.42,34.01,23.83,34.08,23.71C114.19,107.49,116.65,108.11,117.66,107.37z"/>
					<path id="XMLID_1911_" class="st3" d="M113.15,109.13c-0.35,0-0.55-0.21-1.05-0.73c-9.11-9.5-20.94-17.69-33.33-23.05
						c-0.45-0.19-0.65-0.71-0.46-1.16c0.93-2.18,1.9-4.34,2.9-6.5c0.1-0.22,0.28-0.39,0.51-0.46c0.23-0.08,0.47-0.06,0.69,0.04
						c12.19,6.09,24.76,16.37,35.41,28.94c0.21,0.24,0.35,0.41,0.42,0.49c0.11,0.09,0.2,0.22,0.25,0.36
						c0.14,0.37,0.02,0.79-0.3,1.03c-0.72,0.53-1.73,0.57-2.71,0.6c-0.65,0.02-1.46,0.05-1.74,0.26c-0.12,0.09-0.27,0.15-0.42,0.17
						C113.25,109.13,113.2,109.13,113.15,109.13z M80.28,84.08c12.3,5.46,24.03,13.63,33.09,23.09c0.62-0.2,1.33-0.23,2.03-0.26
						c0.21-0.01,0.44-0.02,0.66-0.03C105.89,94.98,94,85.22,82.43,79.26C81.69,80.87,80.98,82.47,80.28,84.08z"/>
				</g>
				<g id="XMLID_1905_">
					<path id="XMLID_1909_" class="st1" d="M121.23,102.41c-0.99,0.69-1.98,1.38-2.96,2.08c1.11,2.31,1.69,3.72,2.82,6.03
						c-1.8-1.81-1.61-1.35-3.43-3.15c-1.01,0.74-3.47,0.12-4.46,0.87l4.46,6.66c3.37,4.45,8.18,5.65,8.18,5.66
						c0.53-0.39,1.06-0.78,1.59-1.17c0.53-0.39,1.07-0.77,1.6-1.15c-0.01,0,0.34-4.94-2.85-9.53
						C126.18,108.72,121.23,102.41,121.23,102.41z"/>
					<path id="XMLID_1906_" class="st3" d="M125.83,121.45c-0.07,0-0.15-0.01-0.22-0.03c-0.02,0-0.04-0.01-0.06-0.02
						c-1.27-0.37-5.49-1.87-8.6-5.97l-4.49-6.7c-0.26-0.39-0.17-0.91,0.2-1.2c0.72-0.55,1.75-0.59,2.75-0.62
						c0.65-0.02,1.45-0.05,1.73-0.26c0.35-0.26,0.84-0.22,1.15,0.08c0.04,0.04,0.08,0.08,0.12,0.12c-0.28-0.61-0.58-1.25-0.93-1.98
						c-0.19-0.39-0.07-0.85,0.28-1.1c0.98-0.71,1.97-1.4,2.97-2.09c0.16-0.11,0.36-0.17,0.56-0.16c0.4,0.02,0.4,0.02,5.59,6.64
						c2.96,4.27,3.07,8.77,3.04,10.05h0c0,0.03,0,0.05,0,0.08c-0.02,0.27-0.15,0.51-0.37,0.67c-0.53,0.38-1.07,0.76-1.6,1.15
						l-1.59,1.16C126.2,121.39,126.02,121.45,125.83,121.45z M114.59,108.73l3.8,5.68c2.5,3.3,5.86,4.71,7.28,5.18l1.23-0.9
						c0.41-0.3,0.83-0.6,1.24-0.9c-0.01-1.49-0.31-5.13-2.69-8.57l0,0c0,0-3.14-4-4.4-5.61c-0.56,0.39-1.11,0.78-1.66,1.17
						c0.36,0.76,0.67,1.44,0.97,2.1c0.46,1.01,0.91,2,1.53,3.25c0.19,0.39,0.07,0.86-0.28,1.11c-0.35,0.25-0.84,0.21-1.14-0.1
						c-0.89-0.9-1.27-1.21-1.67-1.55c-0.34-0.28-0.68-0.57-1.31-1.17c-0.61,0.2-1.32,0.23-2.01,0.25
						C115.19,108.7,114.87,108.71,114.59,108.73z"/>
				</g>
				<g id="XMLID_1900_">
					<path id="XMLID_1904_" class="st1" d="M119.31,106.7c0.07,0-15.98-26.02-17.15-44.85c2.2-0.38,4.4-0.73,6.6-1.05
						c1.07,26.27,12.69,41.57,12.47,41.61C120.24,103.1,120.29,106,119.31,106.7z"/>
					<path id="XMLID_1901_" class="st3" d="M119.31,107.59c-0.22,0-0.43-0.08-0.6-0.23c-0.09-0.08-0.15-0.18-0.2-0.28
						c-0.04-0.06-0.11-0.2-0.23-0.4c-4.78-8.18-16.02-28.92-17-44.78c-0.03-0.45,0.29-0.85,0.73-0.93c2.21-0.38,4.42-0.73,6.62-1.05
						c0.25-0.04,0.5,0.04,0.69,0.19c0.19,0.16,0.31,0.39,0.32,0.65c0.61,14.89,4.87,29.31,11.99,40.59c0.45,0.71,0.6,0.95,0.41,1.4
						c-0.07,0.16-0.18,0.29-0.31,0.38l0,0c-0.23,0.16-0.47,1.09-0.62,1.65c-0.27,1.03-0.55,2.1-1.29,2.63
						C119.67,107.53,119.49,107.59,119.31,107.59z M103.1,62.59c1.23,14.8,11.28,33.8,16.17,42.27c0.05-0.19,0.1-0.37,0.14-0.52
						c0.19-0.73,0.38-1.47,0.74-2.03c0,0,0,0,0-0.01c-7.13-11.29-11.46-25.64-12.22-40.48C106.31,62.06,104.7,62.32,103.1,62.59z"/>
				</g>
			</g>
			<g id="XMLID_1894_">
				<path id="XMLID_1898_" class="st1" d="M129.01,118.26l-0.02,0.01c0.01-0.01,0.02-0.02,0.03-0.02c-0.01,0,0.34-4.94-2.85-9.53
					l-4.95-6.31c-0.99,0.69-0.94,3.59-1.92,4.29c2.76,5.8,3.64,8.13,6.52,13.87c0,0-0.45,0.63-0.07,1.63c0,0,0.34-1.62,0.94-1.8
					l0.89,1.15c0,0-0.17-1.5,0.13-1.72c0.3-0.22,1.68,0.41,1.68,0.41l-0.82-1.2c0.36-0.51,2-0.33,2-0.33
					C129.75,118.03,129.01,118.26,129.01,118.26z"/>
				<path id="XMLID_1895_" class="st3" d="M125.75,123.08c-0.37,0-0.7-0.23-0.83-0.58c-0.31-0.82-0.22-1.49-0.07-1.92
					c-1.63-3.27-2.6-5.39-3.72-7.84c-0.74-1.63-1.54-3.38-2.63-5.67c-0.18-0.39-0.06-0.85,0.28-1.1c0.23-0.16,0.47-1.09,0.61-1.64
					c0.27-1.04,0.55-2.12,1.32-2.66c0.39-0.27,0.91-0.19,1.2,0.18l4.95,6.3c2.5,3.6,2.97,7.37,3.03,9.23
					c0.37,0.08,0.8,0.26,1.23,0.61c0.31,0.25,0.42,0.66,0.27,1.03c-0.15,0.36-0.52,0.6-0.91,0.54c-0.16-0.02-0.32-0.02-0.49-0.03
					l0.13,0.19c0.22,0.33,0.2,0.77-0.06,1.07c-0.26,0.3-0.68,0.4-1.04,0.23c-0.19-0.09-0.41-0.17-0.6-0.24
					c0,0.21,0.02,0.44,0.04,0.65c0.04,0.39-0.18,0.77-0.55,0.92c-0.37,0.15-0.79,0.04-1.03-0.28l-0.14-0.18
					c-0.05,0.15-0.09,0.32-0.12,0.47c-0.08,0.39-0.41,0.67-0.8,0.7C125.8,123.08,125.78,123.08,125.75,123.08z M120.36,106.85
					c0.97,2.05,1.7,3.66,2.39,5.17c1.08,2.38,2.03,4.45,3.58,7.57c0.04-0.01,0.07-0.03,0.11-0.04c0.14-0.04,0.28-0.05,0.41-0.02
					c0.12-0.25,0.26-0.35,0.35-0.42c0.09-0.06,0.23-0.17,0.5-0.2c0.02-0.13,0.07-0.26,0.15-0.38c0.07-0.1,0.16-0.19,0.25-0.27
					c0-0.08,0.01-0.16,0.04-0.23c0.02-1.31-0.17-5.17-2.69-8.8l-4.11-5.24c-0.09,0.28-0.16,0.57-0.22,0.8
					C120.93,105.53,120.73,106.28,120.36,106.85z"/>
			</g>
		</g>
		<g id="XMLID_1879_">
			<g id="XMLID_1880_">
				<g id="XMLID_1887_">
					<g id="XMLID_1891_">
						<path id="XMLID_1892_" class="st1" d="M46.23,57.35c0.92-1.45,2.04-2.87,3.61-3.59c1.66-0.77,3.64-0.66,5.28-1.48
							c2.57-1.28,4.35-4.76,7.17-4.24c1.96,0.36,3.06,2.59,4.94,3.27c2.68,0.97,3.69-1.18,6.27,0.03c3.07,1.45,2.06,5.28,4.9,7.15
							c1.63,1.07,4.26,1.26,5,4.3c0.31,1.29-0.82,3.77-0.85,5.09c-0.04,1.7,0.97,2.42,1.28,4.09c0.41,2.19,0.1,3.58-3.41,6.35
							c-2.07,1.64-2.75,2.11-2.52,4.74c0.29,3.3-0.97,4.08-2.24,4.52c-1.63,0.56-2.44,0.36-3.97,1.01c-2.31,0.99-2.26,3.67-4.9,4.03
							c-2.85,0.39-3.81-1.5-6.43-1.89c-1.47-0.22-2.9,0.53-4.4,0.48c-1.9-0.05-3.77-0.62-5.33-1.72c-3.07-2.15-5.63-4.98-7.28-8.32
							C40.12,74.58,41.68,64.55,46.23,57.35z"/>
					</g>
					<g id="XMLID_1888_">
						<g id="XMLID_1889_">
							<path id="XMLID_1890_" class="st3" d="M46.97,57.79c2.93-4.17,6.31-3.29,9.8-5.56c0.83-0.54,1.48-1.54,2.36-1.99
								c2.52-1.29,3.81-0.15,6.2,0.94c1.22,0.56,1.88,0.95,3.21,1.24c0.5,0.11,1.03-0.26,1.53-0.19c3.44,0.43,4.13,1.16,5.58,3.95
								c1.92,3.69,6.55,4.13,6.62,8.93c0.03,1.78-0.6,2.65-0.31,4.46c0.64,3.88,1.58,2.26,0.24,5.17c-0.94,2.04-2.06,2.33-3.47,3.86
								c-0.75,0.82-1.17,1.38-1.57,2.41c-1.26,3.15,0.37,4.94-3.74,6.24c-1.67,0.53-2.47,1.1-3.88,2.01
								c-2.37,1.53-4.91,1.45-7.54,1.05c-2.13-0.32-3.93,0.25-6.02,0.07c-5.21-0.46-9.7-5.11-11.87-9.62
								C40.59,73.45,43.1,64.38,46.97,57.79c0.56-0.95-0.92-1.81-1.48-0.86c-6.9,11.75-6.78,32.82,10.48,35.16
								c2.28,0.31,4.79,0.22,7.1,0.63c0.75,0.13,1.38,0.68,2.22,0.77c4,0.44,4.55-3.04,7.99-4.48c1.56-0.65,3.38-0.35,4.55-1.81
								c0.67-0.84,0.61-1.41,0.93-2.43c-0.19-1.76,0.2-3.41,1.19-4.96c0.88-0.69,1.74-1.41,2.58-2.15c1.8-1.88,2.27-3.12,2.16-5.68
								c-0.03-0.66-0.47-1.23-0.59-1.86c-0.66-3.19,0.16-3.45,0.17-6.17c0.01-2.32-0.9-3.38-2.59-4.78
								c-1.65-1.38-3.37-1.94-4.6-4.04c-0.69-1.18-0.72-2.4-1.74-3.46c-1.52-1.59-2.73-1.15-4.6-1.41c-2.32-0.32-4.5-1.74-6.67-2.39
								c-0.53-0.16-1.15-0.61-1.77-0.69c-3.39-0.39-6.31,3.72-9.13,4.84c-3.62,1.44-5.31,1.53-7.67,4.89
								C44.86,57.83,46.34,58.68,46.97,57.79z"/>
						</g>
					</g>
				</g>
				<g id="XMLID_1885_">
					<path id="XMLID_1886_" class="st3" d="M61.32,76.56c0.21,0.08,0.42,0.15,0.64,0.21c0.42,0.14,0.86,0.26,1.29,0.37
						c0.44,0.09,0.87,0.2,1.32,0.26c0.44,0.08,0.89,0.11,1.34,0.16c0.45,0.03,0.9,0.06,1.35,0.06c0.45,0.01,0.9-0.03,1.36-0.05
						c0.23-0.02,0.45-0.04,0.68-0.07c0.23-0.02,0.45-0.05,0.68-0.09l0.68-0.11l0.67-0.14c0.45-0.08,0.89-0.22,1.34-0.34
						c0.45-0.12,0.88-0.29,1.33-0.42c-0.41,0.22-0.82,0.46-1.24,0.66c-0.43,0.19-0.85,0.4-1.3,0.55c-0.22,0.08-0.44,0.17-0.67,0.24
						l-0.68,0.2c-0.23,0.07-0.46,0.13-0.69,0.18c-0.23,0.05-0.46,0.11-0.7,0.16c-0.47,0.07-0.94,0.16-1.42,0.19
						c-0.48,0.06-0.96,0.06-1.44,0.08c-0.48,0-0.96-0.01-1.44-0.06c-0.48-0.03-0.96-0.11-1.44-0.18c-0.47-0.09-0.95-0.18-1.42-0.3
						c-0.24-0.06-0.47-0.13-0.7-0.2c-0.23-0.07-0.46-0.14-0.69-0.22c-0.92-0.31-1.8-0.7-2.66-1.14c-0.43-0.22-0.85-0.46-1.26-0.72
						c-0.41-0.25-0.82-0.51-1.21-0.8c-0.39-0.28-0.78-0.57-1.15-0.88c-0.38-0.32-0.73-0.62-1.1-1l-0.58-0.6l0.61-0.57
						c0.91-0.85,1.84-1.66,2.78-2.46c0.47-0.4,0.94-0.79,1.42-1.18c0.48-0.39,0.95-0.78,1.43-1.16l-0.27,0.6l0.03-0.94
						c0.02-0.31,0-0.63,0.06-0.94l0.13-0.94c0.03-0.31,0.12-0.62,0.19-0.92c0.08-0.3,0.14-0.61,0.24-0.91l0.31-0.89
						c0.09-0.3,0.25-0.58,0.38-0.86c0.13-0.28,0.26-0.57,0.43-0.83c0.16-0.27,0.31-0.54,0.48-0.8l0.54-0.76
						c0.19-0.24,0.4-0.48,0.6-0.71c0.2-0.24,0.43-0.45,0.64-0.67c0.21-0.22,0.45-0.42,0.68-0.62c0.24-0.2,0.48-0.38,0.72-0.57
						c0.49-0.36,1.01-0.68,1.56-0.94c-0.24,0.18-0.48,0.37-0.7,0.57c-0.23,0.2-0.44,0.41-0.65,0.61c-0.21,0.21-0.41,0.43-0.61,0.65
						c-0.19,0.23-0.39,0.45-0.57,0.68c-0.17,0.24-0.36,0.46-0.53,0.71c-0.16,0.25-0.32,0.49-0.48,0.74l-0.43,0.76
						c-0.14,0.26-0.25,0.53-0.37,0.79c-0.13,0.26-0.22,0.53-0.32,0.81c-0.09,0.27-0.21,0.54-0.27,0.82l-0.23,0.83
						c-0.07,0.28-0.1,0.57-0.16,0.85c-0.05,0.28-0.11,0.56-0.12,0.85L59.68,66c-0.04,0.28,0,0.58-0.01,0.86l0.01,0.86l0.01,0.36
						l-0.27,0.24l-2.75,2.42c-0.91,0.81-1.83,1.62-2.7,2.45l0.03-1.17c0.28,0.28,0.63,0.59,0.96,0.87c0.34,0.29,0.69,0.56,1.06,0.82
						c0.36,0.27,0.73,0.52,1.11,0.76c0.38,0.24,0.76,0.47,1.15,0.69c0.39,0.22,0.79,0.43,1.19,0.62"/>
				</g>
				<g id="XMLID_1883_">
					<path id="XMLID_1884_" class="st3" d="M49.8,60.77c-0.35,0.71-0.65,1.43-0.92,2.16c-0.27,0.73-0.52,1.47-0.72,2.22
						c-0.1,0.37-0.2,0.75-0.28,1.12c-0.09,0.37-0.16,0.75-0.22,1.13c-0.12,0.76-0.21,1.51-0.23,2.26c-0.03,0.75,0.01,1.5,0.1,2.24
						c0.09,0.74,0.25,1.46,0.48,2.15c0.45,1.39,1.19,2.68,2.13,3.8l0.38,0.44l-0.29,0.5l-1.26,2.14l-0.05-0.9
						c0.17,0.21,0.4,0.48,0.62,0.71c0.23,0.24,0.46,0.47,0.7,0.69c0.49,0.45,1,0.87,1.54,1.26c0.54,0.39,1.1,0.76,1.68,1.09
						c0.29,0.17,0.58,0.33,0.88,0.48c0.3,0.15,0.6,0.3,0.91,0.42c0.31,0.14,0.62,0.25,0.94,0.37c0.32,0.11,0.64,0.23,0.96,0.32
						c0.32,0.1,0.65,0.19,0.98,0.27c0.33,0.08,0.66,0.15,1,0.22c0.34,0.06,0.67,0.13,1.02,0.16c0.34,0.05,0.68,0.08,1.03,0.12
						c0.34,0.04,0.69,0.04,1.04,0.07c0.35,0.02,0.7,0.01,1.05,0.03c-0.34,0.07-0.69,0.14-1.04,0.2c-0.35,0.04-0.7,0.1-1.05,0.12
						l-0.53,0.04c-0.18,0.01-0.35,0.01-0.53,0.01c-0.36,0.01-0.71,0-1.07-0.01c-0.36-0.02-0.71-0.04-1.07-0.09
						c-0.35-0.05-0.71-0.09-1.06-0.16c-0.36-0.06-0.7-0.15-1.06-0.22c-0.35-0.1-0.7-0.19-1.04-0.31c-0.35-0.11-0.68-0.24-1.02-0.37
						c-0.34-0.14-0.67-0.28-1-0.44c-0.33-0.16-0.65-0.33-0.96-0.51c-0.32-0.18-0.63-0.37-0.93-0.57c-0.3-0.2-0.6-0.41-0.89-0.63
						c-0.29-0.22-0.58-0.45-0.85-0.69c-0.28-0.24-0.54-0.49-0.8-0.75c-0.27-0.27-0.5-0.52-0.76-0.86l-0.33-0.42l0.28-0.48l1.25-2.15
						l0.08,0.95c-1.08-1.28-1.91-2.8-2.35-4.42c-0.23-0.81-0.37-1.64-0.42-2.46c-0.06-0.83-0.03-1.66,0.07-2.47
						c0.09-0.81,0.24-1.62,0.46-2.4c0.11-0.39,0.23-0.78,0.36-1.16c0.13-0.38,0.27-0.76,0.43-1.13c0.32-0.74,0.66-1.46,1.06-2.15
						C48.88,62.05,49.31,61.38,49.8,60.77z"/>
				</g>
				<g id="XMLID_1881_">
					<path id="XMLID_1882_" class="st3" d="M73.22,63.76c-20.99-1.1-28.52,19.65-28.54,19.71c0.83,1.24,1.79,2.39,2.85,3.45
						C51.93,65.56,73.22,63.76,73.22,63.76z"/>
				</g>
			</g>
		</g>
		<g id="XMLID_1837_">
			<g id="XMLID_1843_">
				<g id="XMLID_1874_">
					<path id="XMLID_1878_" class="st1" d="M139.66,48.45c1.3-1.33,2.62-2.65,3.96-3.95c6.59,9.28,13.79,19.56,20.31,28.89
						c-0.63,0.41-1.25,0.83-1.87,1.25C162.07,74.63,147.93,56.07,139.66,48.45z"/>
					<path id="XMLID_1875_" class="st3" d="M164.56,73.62c-0.05,0.13-0.14,0.25-0.26,0.33c-0.62,0.41-1.24,0.83-1.86,1.25
						c-0.23,0.16-0.54,0.16-0.77-0.01c-0.07-0.05-0.12-0.1-0.16-0.17c-0.29-0.39-14.09-18.51-22.31-26.08
						c-0.13-0.12-0.21-0.3-0.22-0.48c0-0.18,0.06-0.36,0.19-0.49c1.31-1.34,2.63-2.66,3.97-3.96c0.14-0.14,0.34-0.21,0.53-0.19
						s0.38,0.12,0.49,0.28c6.67,9.39,14.01,19.87,20.32,28.89c0.1,0.15,0.14,0.34,0.11,0.52C164.59,73.55,164.58,73.59,164.56,73.62
						z M162.2,73.73c0.26-0.18,0.52-0.35,0.78-0.52c-6.07-8.68-13.05-18.65-19.46-27.67c-0.98,0.95-1.95,1.92-2.9,2.89
						C146.3,53.87,159.41,69.5,162.2,73.73z"/>
				</g>
				<g id="XMLID_1869_">
					<path id="XMLID_1873_" class="st1" d="M162.91,74.14c0.01-0.01-7.67-9.76-23.56-33.29c1.44-0.98,2.9-1.94,4.36-2.88
						c15.55,26.06,21.62,34.58,21.59,34.6C164.5,73.09,163.7,73.61,162.91,74.14z"/>
					<path id="XMLID_1870_" class="st3" d="M165.93,72.81c-0.05,0.13-0.14,0.25-0.27,0.33c-0.8,0.52-1.59,1.04-2.38,1.57
						c-0.3,0.2-0.71,0.13-0.93-0.17c0,0,0,0,0,0l-0.11-0.14c-2.05-2.67-9.8-12.94-23.46-33.16c-0.21-0.31-0.13-0.73,0.18-0.94
						c1.45-0.98,2.91-1.94,4.38-2.89c0.15-0.1,0.34-0.13,0.52-0.09c0.18,0.04,0.33,0.15,0.43,0.31
						c8.8,14.75,16.37,26.88,21.31,34.16c0.37,0.55,0.43,0.63,0.37,0.92C165.95,72.74,165.94,72.77,165.93,72.81z M163.06,73.23
						c0.43-0.29,0.86-0.57,1.3-0.85c-4.88-7.22-12.28-19.07-20.87-33.46c-1.07,0.69-2.14,1.4-3.2,2.11
						C153.17,60.09,160.7,70.14,163.06,73.23z"/>
				</g>
				<g id="XMLID_1864_">
					<path id="XMLID_1868_" class="st1" d="M150.58,39.03c-1.8,0.38-3.61,0.79-5.41,1.22c3.53,12.35,18.84,33.09,18.78,33.13
						c0.63-0.41,1.25-0.82,1.88-1.23C165.84,72.15,153.08,50.49,150.58,39.03z"/>
					<path id="XMLID_1865_" class="st3" d="M166.47,72.38c-0.02,0.06-0.05,0.12-0.1,0.18c-0.05,0.06-0.11,0.12-0.17,0.16
						c-0.63,0.4-1.25,0.81-1.88,1.22c-0.23,0.15-0.54,0.15-0.77-0.02c-0.09-0.06-0.15-0.14-0.2-0.23c-0.06-0.09-0.24-0.34-0.52-0.74
						c-9.92-14.07-16.25-25.31-18.31-32.52c-0.05-0.18-0.03-0.37,0.07-0.53c0.09-0.16,0.25-0.27,0.43-0.32
						c1.81-0.43,3.61-0.84,5.42-1.22c0.36-0.08,0.72,0.15,0.8,0.52c2.25,10.32,12.98,29.13,15.1,32.8
						C166.43,71.83,166.58,72.09,166.47,72.38z M164.13,72.44c0.26-0.17,0.53-0.34,0.79-0.52c-2.57-4.46-12.36-21.84-14.85-32.1
						c-1.35,0.29-2.7,0.59-4.04,0.91c1.6,5.11,6.04,14.6,17.92,31.44C164.01,72.27,164.08,72.36,164.13,72.44z"/>
				</g>
				<g id="XMLID_1859_">
					<path id="XMLID_1863_" class="st1" d="M168.06,82.61c1.05-0.71,2.11-1.41,3.18-2.09c-2.02-3.11-3.39-5.26-5.41-8.38
						c-1.12,0.72-2.23,1.45-3.33,2.19C164.57,77.42,166,79.53,168.06,82.61z"/>
					<path id="XMLID_1860_" class="st3" d="M171.87,80.76c-0.05,0.14-0.15,0.25-0.27,0.33c-1.06,0.68-2.12,1.38-3.17,2.08
						c-0.15,0.1-0.33,0.14-0.51,0.1c-0.18-0.03-0.33-0.14-0.43-0.29l-5.56-8.27c-0.21-0.31-0.12-0.73,0.18-0.94
						c1.11-0.75,2.22-1.48,3.34-2.2c0.31-0.2,0.73-0.11,0.93,0.2l5.41,8.37c0.1,0.15,0.13,0.33,0.09,0.51
						C171.89,80.7,171.89,80.73,171.87,80.76z M168.25,81.67c0.68-0.46,1.37-0.91,2.06-1.35l-4.67-7.24
						c-0.73,0.47-1.46,0.95-2.19,1.44L168.25,81.67z"/>
				</g>
				<g id="XMLID_1854_">
					<path id="XMLID_1858_" class="st1" d="M165.29,74.29c0.11-0.02-9.51-15.53-11.38-33.37c1.8-0.13,3.61-0.24,5.41-0.32
						c0.89,18.09,7.9,30.72,7.79,30.73C166.31,71.84,166.09,73.77,165.29,74.29z"/>
					<path id="XMLID_1855_" class="st3" d="M167.77,71.54c-0.01,0.04-0.03,0.07-0.05,0.11c-0.06,0.1-0.14,0.19-0.24,0.25
						c-0.23,0.14-0.46,0.71-0.66,1.17c-0.29,0.69-0.59,1.41-1.16,1.78c-0.25,0.17-0.59,0.14-0.82-0.06
						c-0.09-0.08-0.15-0.17-0.19-0.28c-0.04-0.07-0.12-0.22-0.24-0.44c-6.13-10.99-10.09-22.74-11.17-33.09
						c-0.02-0.18,0.03-0.37,0.15-0.5c0.12-0.14,0.29-0.23,0.47-0.24c1.81-0.13,3.62-0.24,5.43-0.32c0.37-0.02,0.69,0.27,0.71,0.64
						c0.51,10.3,3.18,20.96,7.52,30.02C167.77,71.09,167.86,71.29,167.77,71.54z M165.37,73.02c0.07-0.15,0.14-0.31,0.2-0.46
						c0.21-0.49,0.42-1,0.73-1.38c-4.33-9.02-7.02-19.6-7.62-29.86c-1.34,0.07-2.68,0.15-4.02,0.24
						C155.82,51.42,159.6,62.55,165.37,73.02z"/>
				</g>
				<g id="XMLID_1849_">
					<path id="XMLID_1853_" class="st1" d="M160.79,75.51c0.76-0.52,1.52-1.04,2.29-1.55c1.36,1.42,2.21,2.21,3.55,3.64
						c-0.81-1.78-0.53-1.52-1.33-3.3c0.8-0.52,1.02-2.45,1.82-2.96l3.56,4.98c2.28,3.61,1.84,7.37,1.85,7.37
						c-0.42,0.27-0.84,0.55-1.26,0.82c-0.42,0.28-0.84,0.56-1.25,0.84c0-0.01-3.63-1.09-6.05-4.6
						C163.97,80.74,160.79,75.51,160.79,75.51z"/>
					<path id="XMLID_1850_" class="st3" d="M173.17,83.91c-0.05,0.13-0.14,0.25-0.26,0.33l-1.26,0.82
						c-0.42,0.27-0.83,0.55-1.25,0.83c-0.17,0.12-0.38,0.15-0.58,0.09c-0.01,0-0.03-0.01-0.04-0.02c-0.96-0.33-4.13-1.62-6.36-4.84
						c-3.45-5.67-3.46-5.67-3.14-6.05c0.04-0.05,0.09-0.09,0.14-0.12c0.76-0.53,1.53-1.05,2.29-1.56c0.27-0.18,0.64-0.14,0.86,0.09
						c0.43,0.45,0.81,0.83,1.17,1.2c-0.02-0.04-0.03-0.08-0.05-0.12c-0.14-0.3-0.03-0.66,0.25-0.84c0.22-0.15,0.46-0.71,0.65-1.17
						c0.29-0.7,0.6-1.43,1.18-1.8c0.3-0.19,0.7-0.11,0.91,0.18l3.56,4.98c2.13,3.37,2.05,6.8,1.98,7.77l0,0c0,0.02,0,0.04,0,0.06
						C173.2,83.81,173.19,83.86,173.17,83.91z M169.93,84.59c0.32-0.22,0.65-0.43,0.97-0.65l0.98-0.64
						c0.04-1.14-0.06-3.92-1.77-6.63l-3.02-4.21c-0.1,0.2-0.19,0.42-0.27,0.62c-0.2,0.49-0.41,0.99-0.72,1.37
						c0.26,0.61,0.37,0.93,0.48,1.25c0.13,0.38,0.25,0.73,0.66,1.61c0.14,0.3,0.04,0.66-0.24,0.84s-0.64,0.14-0.87-0.1
						c-0.72-0.77-1.3-1.35-1.9-1.95c-0.4-0.4-0.8-0.8-1.26-1.27c-0.43,0.29-0.86,0.58-1.28,0.87c0.81,1.34,2.85,4.69,2.85,4.69
						C166.34,82.99,168.86,84.18,169.93,84.59z"/>
				</g>
				<g id="XMLID_1844_">
					<path id="XMLID_1848_" class="st1" d="M164.37,75.29c-0.02,0.05-14.31-18.42-27.46-24.32c-0.86,1.47-1.7,2.95-2.52,4.44
						c18.5,7.83,26.31,20.24,26.4,20.1C161.55,74.98,163.61,75.8,164.37,75.29z"/>
					<path id="XMLID_1845_" class="st3" d="M165,75.53c-0.05,0.13-0.14,0.24-0.26,0.32c-0.58,0.39-1.42,0.3-2.23,0.22
						c-0.44-0.05-1.17-0.12-1.34,0l0,0c-0.1,0.07-0.23,0.12-0.36,0.12c-0.37,0.02-0.51-0.17-0.89-0.67
						c-6.15-8.13-15.31-15.05-25.8-19.49c-0.18-0.07-0.31-0.22-0.38-0.4c-0.06-0.18-0.04-0.38,0.05-0.55
						c0.83-1.49,1.67-2.98,2.53-4.45c0.17-0.3,0.54-0.42,0.86-0.28c11.07,4.97,22.88,18.57,27.45,24.19
						c0.11,0.14,0.18,0.23,0.22,0.27c0.06,0.06,0.11,0.14,0.14,0.22C165.06,75.2,165.06,75.37,165,75.53z M161.01,74.71
						c0.5-0.1,1.08-0.04,1.65,0.02c0.12,0.01,0.26,0.03,0.41,0.04c-4.74-5.77-15.62-18.06-25.88-22.92
						c-0.63,1.08-1.24,2.16-1.85,3.24C145.75,59.62,154.85,66.57,161.01,74.71C161,74.7,161.01,74.7,161.01,74.71z"/>
				</g>
			</g>
			<g id="XMLID_1838_">
				<path id="XMLID_1842_" class="st1" d="M170.03,85.33l0.01-0.01c-0.01,0.01-0.02,0.01-0.02,0.02c0-0.01-3.63-1.09-6.05-4.6
					l-3.18-5.23c0.76-0.52,2.82,0.29,3.58-0.22c3.41,3.53,4.84,4.79,8.16,8.39c0,0,0.57-0.15,1.18,0.38c0,0-1.25-0.19-1.54,0.19
					l0.58,0.95c0,0-1.03-0.52-1.27-0.37c-0.24,0.16-0.16,1.31-0.16,1.31l-0.64-0.91c-0.46,0.12-0.78,1.34-0.78,1.34
					C169.67,85.8,170.03,85.33,170.03,85.33z"/>
				<path id="XMLID_1839_" class="st3" d="M174.35,84.3c-0.01,0.01-0.01,0.03-0.02,0.05c-0.13,0.27-0.42,0.43-0.72,0.39
					c-0.12-0.02-0.25-0.03-0.37-0.04l0.09,0.15c0.16,0.26,0.13,0.59-0.08,0.81c-0.21,0.22-0.53,0.28-0.8,0.14
					c-0.15-0.07-0.31-0.15-0.45-0.2c0,0.16,0,0.34,0.01,0.5c0.02,0.3-0.16,0.58-0.45,0.68c-0.29,0.1-0.6,0-0.78-0.25l-0.1-0.14
					c-0.04,0.12-0.08,0.24-0.11,0.36c-0.06,0.29-0.33,0.5-0.63,0.51c-0.3,0.01-0.57-0.18-0.66-0.47c-0.13-0.4-0.14-0.76-0.1-1.04
					c-1.33-0.55-3.88-1.89-5.76-4.61l-3.2-5.27c-0.19-0.31-0.1-0.7,0.19-0.91c0.59-0.41,1.43-0.32,2.25-0.23
					c0.43,0.05,1.16,0.12,1.34,0c0.27-0.18,0.63-0.14,0.86,0.09c1.34,1.39,2.38,2.43,3.34,3.4c1.45,1.46,2.71,2.72,4.61,4.77
					c0.35,0.01,0.84,0.13,1.35,0.57C174.38,83.74,174.45,84.04,174.35,84.3z M171.54,84.01c0.02-0.06,0.05-0.12,0.1-0.17
					c0.02-0.02,0.04-0.05,0.06-0.07c-1.81-1.95-3.04-3.18-4.45-4.6c-0.89-0.9-1.85-1.85-3.05-3.09c-0.51,0.11-1.1,0.05-1.68-0.01
					c-0.18-0.02-0.41-0.04-0.63-0.06l2.66,4.38c1.95,2.82,4.73,3.97,5.61,4.28c0.03,0.01,0.06,0.01,0.09,0.02
					c0.09-0.05,0.18-0.09,0.28-0.12c0.1-0.03,0.21-0.03,0.31,0c0.1-0.19,0.21-0.26,0.28-0.31c0.07-0.05,0.18-0.12,0.39-0.14
					C171.52,84.09,171.53,84.05,171.54,84.01z"/>
			</g>
		</g>
		<g id="XMLID_1795_">
			<g id="XMLID_1801_">
				<g id="XMLID_1832_">
					<path id="XMLID_1836_" class="st1" d="M144.09,67.93c1.78-1.04,3.58-2.06,5.39-3.06c4.33,11.85,9.02,24.94,13.26,36.82
						c-0.79,0.26-1.58,0.52-2.36,0.79C160.39,102.48,150.71,78.5,144.09,67.93z"/>
					<path id="XMLID_1833_" class="st3" d="M163.35,102.13c-0.09,0.13-0.22,0.22-0.37,0.27c-0.79,0.26-1.57,0.52-2.35,0.79
						c-0.29,0.1-0.62,0.01-0.82-0.23c-0.06-0.07-0.1-0.14-0.13-0.22c-0.2-0.51-9.65-23.91-16.22-34.4
						c-0.11-0.17-0.14-0.38-0.09-0.58c0.05-0.2,0.17-0.36,0.35-0.47c1.79-1.05,3.59-2.07,5.41-3.07c0.19-0.11,0.42-0.12,0.62-0.05
						c0.2,0.08,0.37,0.24,0.44,0.44c4.38,11.99,9.16,25.34,13.26,36.82c0.07,0.19,0.06,0.4-0.03,0.58
						C163.4,102.06,163.37,102.09,163.35,102.13z M160.79,101.55c0.33-0.11,0.66-0.22,0.98-0.33c-3.95-11.05-8.49-23.75-12.7-35.27
						c-1.33,0.73-2.64,1.48-3.95,2.24C149.61,75.67,159.04,96.21,160.79,101.55z"/>
				</g>
				<g id="XMLID_1827_">
					<path id="XMLID_1831_" class="st1" d="M161.42,102.2c0.01,0-5.34-12.68-15.45-42.48c1.83-0.62,3.66-1.22,5.5-1.8
						c9,32.41,13,43.29,12.96,43.3C163.43,101.53,162.43,101.86,161.42,102.2z"/>
					<path id="XMLID_1828_" class="st3" d="M165.05,101.65c-0.09,0.13-0.23,0.23-0.38,0.27c-1,0.32-2.01,0.65-3.01,0.98
						c-0.38,0.13-0.8-0.07-0.94-0.45c0,0,0,0,0,0l-0.08-0.19c-1.41-3.45-6.69-16.7-15.38-42.31c-0.13-0.39,0.08-0.82,0.47-0.95
						c1.83-0.63,3.67-1.23,5.52-1.81c0.19-0.06,0.4-0.04,0.58,0.06c0.18,0.1,0.31,0.26,0.36,0.46c5.1,18.34,9.63,33.52,12.78,42.75
						c0.24,0.7,0.27,0.8,0.12,1.09C165.09,101.59,165.07,101.62,165.05,101.65z M161.85,101.27c0.54-0.18,1.09-0.36,1.64-0.53
						c-3.11-9.15-7.54-23.98-12.52-41.87c-1.35,0.43-2.7,0.87-4.04,1.32C155.13,84.33,160.23,97.28,161.85,101.27z"/>
				</g>
				<g id="XMLID_1822_">
					<path id="XMLID_1826_" class="st1" d="M158.52,61.06c-2.04-0.12-4.09-0.22-6.13-0.28c0.16,14.23,10.46,40.89,10.38,40.9
						c0.79-0.26,1.58-0.51,2.37-0.76C165.15,100.93,157.84,74.04,158.52,61.06z"/>
					<path id="XMLID_1823_" class="st3" d="M165.75,101.35c-0.04,0.06-0.09,0.11-0.16,0.16c-0.07,0.05-0.15,0.09-0.23,0.12
						c-0.79,0.25-1.58,0.5-2.36,0.76c-0.3,0.1-0.62,0-0.82-0.24c-0.07-0.09-0.12-0.2-0.15-0.31c-0.04-0.12-0.16-0.44-0.34-0.94
						c-6.49-17.94-9.97-31.81-10.06-40.12c0-0.2,0.08-0.4,0.22-0.54c0.15-0.14,0.34-0.22,0.55-0.21c2.06,0.07,4.11,0.16,6.15,0.28
						c0.41,0.02,0.73,0.38,0.7,0.79c-0.61,11.69,5.35,34.94,6.55,39.48C165.87,100.76,165.96,101.08,165.75,101.35z M163.23,100.74
						c0.33-0.11,0.67-0.21,1-0.32c-1.44-5.52-6.82-26.96-6.49-38.66c-1.53-0.09-3.06-0.16-4.59-0.21
						c0.21,5.93,2.18,17.37,9.95,38.85C163.16,100.52,163.2,100.64,163.23,100.74z"/>
				</g>
				<g id="XMLID_1817_">
					<path id="XMLID_1821_" class="st1" d="M164.46,112.76c1.33-0.45,2.67-0.88,4.01-1.3c-1.24-3.92-2.08-6.62-3.33-10.53
						c-1.41,0.44-2.81,0.9-4.2,1.37C162.25,106.19,163.15,108.86,164.46,112.76z"/>
					<path id="XMLID_1818_" class="st3" d="M169.07,111.89c-0.09,0.13-0.23,0.23-0.38,0.28c-1.34,0.42-2.67,0.85-3.99,1.3
						c-0.19,0.06-0.39,0.05-0.57-0.04c-0.18-0.09-0.31-0.24-0.38-0.43l-3.52-10.47c-0.13-0.39,0.08-0.82,0.47-0.95
						c1.4-0.47,2.81-0.93,4.22-1.37c0.39-0.12,0.81,0.1,0.94,0.49l3.33,10.53c0.06,0.19,0.04,0.4-0.05,0.57
						C169.11,111.83,169.1,111.87,169.07,111.89z M164.93,111.81c0.86-0.29,1.73-0.57,2.6-0.84l-2.88-9.1
						c-0.92,0.29-1.84,0.59-2.76,0.9L164.93,111.81z"/>
				</g>
				<g id="XMLID_1812_">
					<path id="XMLID_1816_" class="st1" d="M163.93,103.05c0.12,0.01-5.63-19.39-2.4-39c1.97,0.39,3.93,0.8,5.88,1.24
						c-4.34,19.59-0.54,35.15-0.66,35.13C165.74,100.73,164.94,102.73,163.93,103.05z"/>
					<path id="XMLID_1813_" class="st3" d="M167.38,100.84c-0.02,0.03-0.05,0.07-0.09,0.1c-0.09,0.09-0.2,0.16-0.33,0.2
						c-0.28,0.09-0.71,0.63-1.04,1.06c-0.51,0.65-1.04,1.33-1.76,1.56c-0.32,0.1-0.67-0.02-0.86-0.3c-0.07-0.11-0.11-0.23-0.12-0.35
						c-0.02-0.09-0.06-0.27-0.13-0.54c-3.33-13.54-4.13-27.26-2.26-38.64c0.03-0.2,0.14-0.38,0.31-0.49
						c0.17-0.12,0.37-0.16,0.57-0.12c1.97,0.39,3.94,0.8,5.9,1.24c0.4,0.09,0.66,0.49,0.57,0.89c-2.47,11.16-2.74,23.34-0.74,34.29
						C167.51,100.36,167.55,100.6,167.38,100.84z M164.39,101.72c0.12-0.14,0.24-0.3,0.35-0.44c0.37-0.47,0.74-0.95,1.18-1.27
						c-1.98-10.91-1.77-23.01,0.6-34.15c-1.45-0.32-2.91-0.63-4.37-0.92C160.49,75.83,161.28,88.84,164.39,101.72z"/>
				</g>
				<g id="XMLID_1807_">
					<path id="XMLID_1811_" class="st1" d="M158.76,103.04c0.96-0.34,1.93-0.67,2.9-0.99c1.03,1.91,1.71,3.01,2.73,4.92
						c-0.35-2.14-0.12-1.78-0.46-3.92c1.01-0.32,1.8-2.32,2.82-2.63l2.35,6.36c1.38,4.52-0.19,8.41-0.18,8.42
						c-0.53,0.17-1.06,0.34-1.59,0.51c-0.53,0.17-1.06,0.35-1.59,0.53c0.01-0.01-3.56-2.22-5.12-6.68
						C160.63,109.56,158.76,103.04,158.76,103.04z"/>
					<path id="XMLID_1808_" class="st3" d="M169.53,115.65c-0.09,0.13-0.23,0.22-0.38,0.27l-1.59,0.51
						c-0.53,0.17-1.05,0.35-1.58,0.52c-0.22,0.07-0.45,0.04-0.64-0.08c-0.01-0.01-0.03-0.02-0.04-0.03
						c-0.92-0.63-3.94-2.94-5.38-7.04c-2.02-7.07-2.04-7.08-1.59-7.38c0.06-0.04,0.12-0.07,0.18-0.09c0.97-0.34,1.94-0.67,2.91-1
						c0.34-0.12,0.72,0.03,0.9,0.35c0.33,0.6,0.62,1.13,0.9,1.62c-0.01-0.05-0.01-0.09-0.02-0.14c-0.06-0.36,0.16-0.72,0.51-0.83
						c0.28-0.09,0.7-0.63,1.04-1.06c0.52-0.66,1.05-1.35,1.79-1.57c0.38-0.12,0.78,0.08,0.92,0.46l2.35,6.36
						c1.29,4.22,0.2,7.87-0.16,8.89l0,0c-0.01,0.02-0.01,0.04-0.02,0.06C169.6,115.54,169.57,115.6,169.53,115.65z M165.87,115.41
						c0.41-0.14,0.82-0.27,1.23-0.41l1.23-0.4c0.38-1.2,1.08-4.21,0.05-7.6l-1.99-5.38c-0.16,0.18-0.32,0.39-0.47,0.58
						c-0.36,0.46-0.73,0.94-1.17,1.26c0.1,0.72,0.13,1.1,0.15,1.48c0.03,0.44,0.06,0.86,0.23,1.91c0.06,0.36-0.15,0.71-0.5,0.83
						c-0.35,0.12-0.73-0.03-0.9-0.36c-0.55-1.03-1-1.82-1.46-2.64c-0.31-0.54-0.62-1.09-0.97-1.73c-0.54,0.18-1.08,0.37-1.63,0.56
						c0.48,1.67,1.67,5.84,1.67,5.84C162.51,112.66,164.85,114.67,165.87,115.41z"/>
				</g>
				<g id="XMLID_1802_">
					<path id="XMLID_1806_" class="st1" d="M162.66,103.85c-0.04,0.05-9.9-23.87-22.23-34.03c-1.35,1.32-2.68,2.66-4,4.01
						c17.48,13.78,22.2,29.34,22.34,29.21C159.73,102.7,161.69,104.17,162.66,103.85z"/>
					<path id="XMLID_1803_" class="st3" d="M163.26,104.29c-0.09,0.12-0.22,0.22-0.37,0.27c-0.74,0.25-1.61-0.09-2.45-0.42
						c-0.45-0.18-1.21-0.47-1.43-0.4l0,0c-0.13,0.05-0.28,0.06-0.42,0.02c-0.4-0.09-0.5-0.33-0.76-0.98
						c-4.2-10.49-11.97-20.57-21.88-28.38c-0.17-0.13-0.27-0.33-0.28-0.54c-0.01-0.21,0.06-0.42,0.21-0.57
						c1.32-1.35,2.65-2.69,4.01-4.02c0.27-0.27,0.7-0.29,1-0.04c10.38,8.55,19.03,26.55,22.26,33.89c0.08,0.18,0.13,0.3,0.15,0.35
						c0.05,0.08,0.08,0.18,0.09,0.28C163.42,103.95,163.37,104.14,163.26,104.29z M159.23,102.24c0.56,0.03,1.17,0.27,1.76,0.5
						c0.12,0.05,0.27,0.11,0.42,0.16c-3.38-7.56-11.41-23.88-20.95-32.07c-0.98,0.97-1.96,1.94-2.92,2.92
						C147.34,81.66,155.03,91.74,159.23,102.24C159.23,102.24,159.23,102.24,159.23,102.24z"/>
				</g>
			</g>
			<g id="XMLID_1796_">
				<path id="XMLID_1800_" class="st1" d="M165.76,116.24l0.02-0.01c-0.01,0-0.02,0.01-0.03,0.01c0.01-0.01-3.56-2.22-5.12-6.68
					l-1.87-6.52c0.96-0.34,2.93,1.13,3.89,0.81c2.61,4.77,3.77,6.54,6.27,11.36c0,0,0.65,0,1.15,0.76c0,0-1.28-0.57-1.7-0.25
					l0.35,1.18c0,0-0.95-0.86-1.25-0.76c-0.3,0.1-0.55,1.35-0.55,1.35l-0.42-1.16c-0.53-0.01-1.22,1.21-1.22,1.21
					C165.24,116.63,165.76,116.24,165.76,116.24z"/>
				<path id="XMLID_1797_" class="st3" d="M170.69,116.4c-0.01,0.01-0.02,0.03-0.03,0.04c-0.21,0.25-0.57,0.34-0.88,0.2
					c-0.12-0.05-0.25-0.1-0.38-0.15l0.05,0.18c0.1,0.32-0.04,0.67-0.32,0.85c-0.28,0.18-0.65,0.14-0.9-0.08
					c-0.13-0.12-0.29-0.25-0.42-0.35c-0.05,0.17-0.1,0.36-0.13,0.53c-0.07,0.33-0.34,0.57-0.68,0.6c-0.34,0.02-0.65-0.18-0.76-0.49
					l-0.07-0.18c-0.08,0.11-0.16,0.23-0.22,0.35c-0.15,0.29-0.5,0.44-0.82,0.36c-0.32-0.08-0.56-0.36-0.57-0.69
					c-0.02-0.47,0.07-0.85,0.2-1.15c-1.26-0.98-3.6-3.16-4.81-6.62l-1.88-6.56c-0.11-0.38,0.1-0.78,0.47-0.91
					c0.75-0.26,1.63,0.08,2.48,0.41c0.45,0.18,1.2,0.47,1.43,0.39c0.34-0.11,0.72,0.03,0.89,0.35c1.03,1.88,1.83,3.29,2.58,4.61
					c1.13,1.98,2.1,3.7,3.54,6.45c0.36,0.12,0.86,0.39,1.28,1C170.88,115.81,170.87,116.15,170.69,116.4z M167.77,115.27
					c0.04-0.06,0.09-0.11,0.15-0.16c0.03-0.02,0.06-0.04,0.08-0.06c-1.37-2.62-2.32-4.29-3.42-6.22c-0.69-1.22-1.43-2.52-2.35-4.2
					c-0.57-0.03-1.19-0.27-1.79-0.5c-0.19-0.07-0.43-0.17-0.66-0.25l1.56,5.46c1.26,3.58,3.9,5.63,4.75,6.22
					c0.03,0.01,0.06,0.03,0.09,0.05c0.11-0.03,0.22-0.05,0.33-0.05c0.12,0,0.23,0.03,0.33,0.09c0.16-0.17,0.3-0.22,0.39-0.25
					c0.09-0.03,0.23-0.08,0.46-0.03C167.72,115.35,167.74,115.31,167.77,115.27z"/>
			</g>
		</g>
		<g id="XMLID_1776_">
			<g id="XMLID_1789_">
				<g id="XMLID_1793_">
					<path id="XMLID_1794_" class="st1" d="M94.78,94.28c2.09,2.67,3.44,5.89,4.11,9.21c1.98,9.75-0.34,15.49,0.28,19.73
						c0.11,0.72,0.44,0.96-0.11,1.16c-0.39,0.15-0.68-0.56-0.88-0.94c-1.2-2.29-8.6-8.63-11.69-14.43c-1.75-3.28-3.05-6.79-3-10.53
						c0.04-2.85,1-8.03,3.75-9.07C90.15,88.33,94.06,93.36,94.78,94.28z"/>
				</g>
				<g id="XMLID_1790_">
					<g id="XMLID_1791_">
						<path id="XMLID_1792_" class="st3" d="M93.91,94.79c3.93,5.34,5.01,11.94,4.76,18.45c-0.08,2.11-0.36,4.2-0.52,6.31
							c-0.03,0.37,0.15,4.16,0.2,4.12c0.41-0.05,0.82-0.11,1.22-0.16c-0.68-0.37-1.59-2.06-2.11-2.67
							c-1.19-1.38-2.48-2.68-3.71-4.02c-3.12-3.4-6-6.91-7.75-11.22c-1.63-4.02-2.33-9.25-0.19-13.28c2.34-4.39,6.36,0.27,8.25,2.67
							c0.8,1.02,2.22-0.42,1.43-1.43c-1.81-2.3-5.12-6.27-8.51-5.13c-3.63,1.22-4.45,6.8-4.49,10.04
							c-0.07,5.75,2.76,11.23,6.25,15.62c1.88,2.37,3.98,4.55,6.03,6.78c1.18,1.28,2.28,3.57,3.77,4.37
							c0.44,0.23,0.86,0.13,1.22-0.16c1.16-0.92,0.28-2.95,0.31-4.24c0.07-2.54,0.5-5.07,0.6-7.61c0.26-6.83-0.91-13.87-5.03-19.47
							C94.89,92.74,93.14,93.75,93.91,94.79z"/>
					</g>
				</g>
			</g>
			<g id="XMLID_1783_">
				<g id="XMLID_1787_">
					<path id="XMLID_1788_" class="st1" d="M75.9,111.08c2.16,5.86,6.47,9.89,10.03,12.1c3.26,2.02,9.96,4.57,9.96,4.57
						c0.67,0.61-0.13-6.79-4.04-15.92c-1.57-3.68-3.9-6.91-7.61-9.26c-1.34-0.84-6.03-3.42-8.44-1.24
						C73.29,103.58,75.43,109.79,75.9,111.08z"/>
				</g>
				<g id="XMLID_1784_">
					<g id="XMLID_1785_">
						<path id="XMLID_1786_" class="st3" d="M74.93,111.35c2,5.02,5.33,9.29,9.86,12.29c3.23,2.14,7.48,3.61,10.67,5.01
							c0.44,0.19,0.85,0.17,1.22-0.16c1.86-1.63-0.9-8.6-1.41-10.26c-1.8-5.87-4.15-11.82-9.21-15.62
							c-2.7-2.02-7.93-4.87-10.99-2.01C72.31,103.2,73.84,108.32,74.93,111.35c0.44,1.21,2.39,0.69,1.95-0.54
							c-0.83-2.3-2.81-7.91,0.44-9.21c3.26-1.31,8.31,2.94,10.17,5.04c3.21,3.62,4.82,8.56,6.14,13.13
							c0.44,1.53,0.84,3.09,1.13,4.66c0.11,0.61,0.06,1.5,0.3,2.04c0.21,0.49-0.31,1.04,0.2,0.59c0.41-0.05,0.82-0.11,1.22-0.16
							c-8.38-3.69-15.95-6.91-19.6-16.1C76.4,109.62,74.45,110.14,74.93,111.35z"/>
					</g>
				</g>
			</g>
			<g id="XMLID_1777_">
				<g id="XMLID_1781_">
					<path id="XMLID_1782_" class="st1" d="M97.64,95.81c-1.1,3.2-1.67,6.93-1.16,10.29c1.52,9.97,6.27,14.39,7.43,18.59
						c0.27,0.96,1.93,2.87,1.62,1.13c-0.83-4.79,1.85-8.85,3.03-11.09c2.41-4.56,2.75-8.82,2.1-12.76
						c-1.45-8.76-5.55-12.1-7.45-12.09C100.78,89.89,98.33,93.81,97.64,95.81z"/>
				</g>
				<g id="XMLID_1778_">
					<g id="XMLID_1779_">
						<path id="XMLID_1780_" class="st3" d="M96.67,95.54c-2.44,7.64-1.03,15.16,2.61,22.18c1.26,2.43,2.56,4.75,3.67,7.24
							c0.55,1.24,1.52,3.07,3.11,2.32c0.31-0.15,0.5-0.54,0.5-0.87c-0.02-3.39,0.15-5.9,1.71-8.98c1.23-2.45,2.54-4.73,3.17-7.43
							c1.17-5.05,0.32-10.67-1.92-15.32c-1.07-2.21-3.05-5.33-5.75-5.75C100.25,88.38,97.72,92.85,96.67,95.54
							c-0.47,1.21,1.48,1.73,1.95,0.54c0.93-2.39,3.37-6.57,6.21-4.41c2.2,1.67,3.41,4.74,4.14,7.28c1.14,3.99,1.36,8.17,0.07,12.15
							c-0.96,2.95-2.87,5.46-3.87,8.39c-0.45,1.34-0.76,2.76-0.79,4.17c0,0.21-0.03,2.11,0.15,2.15c1.11,0.27,0.09-2.23,0.01-2.41
							c-0.71-1.76-1.7-3.38-2.62-5.03c-3.89-7.02-5.83-14.44-3.31-22.3C99.01,94.84,97.07,94.31,96.67,95.54z"/>
					</g>
				</g>
			</g>
		</g>
		<g id="XMLID_1748_">
			<g id="XMLID_1767_">
				<g id="XMLID_1771_">
					<g>
						<path id="XMLID_52_" class="st6" d="M76.19,59.99c2.42,2.38,4.18,5.39,5.28,8.6c3.22,9.41,1.67,15.4,2.84,19.52
							c0.2,0.7,0.56,0.89,0.04,1.17c-0.37,0.2-0.75-0.47-0.99-0.82c-1.49-2.12-9.65-7.44-13.46-12.79
							c-2.16-3.03-3.91-6.34-4.34-10.06c-0.33-2.83-0.05-8.1,2.54-9.48C70.82,54.68,75.35,59.16,76.19,59.99z"/>
					</g>
				</g>
				<g id="XMLID_1768_">
					<g id="XMLID_1769_">
						<path id="XMLID_1770_" class="st3" d="M75.4,60.61c4.59,4.79,6.51,11.18,7.11,17.68c0.19,2.1,0.19,4.21,0.31,6.32
							c0.02,0.37,0.69,4.11,0.73,4.06c0.4-0.11,0.79-0.21,1.19-0.32c-0.72-0.27-1.84-1.84-2.43-2.37c-1.36-1.21-2.8-2.33-4.2-3.5
							c-3.53-2.97-6.85-6.07-9.14-10.12c-2.14-3.78-3.52-8.87-1.91-13.14c1.75-4.66,6.34-0.55,8.52,1.58
							c0.93,0.91,2.15-0.7,1.23-1.6c-2.09-2.05-5.89-5.55-9.11-3.98c-3.44,1.68-3.53,7.32-3.15,10.54
							c0.68,5.71,4.2,10.77,8.23,14.68c2.18,2.11,4.54,4,6.86,5.94c1.33,1.11,2.73,3.24,4.31,3.84c0.46,0.18,0.87,0.02,1.19-0.32
							c1.03-1.06-0.11-2.96-0.24-4.24c-0.26-2.53-0.16-5.09-0.4-7.63c-0.63-6.81-2.7-13.64-7.52-18.65
							C76.1,58.44,74.5,59.67,75.4,60.61z"/>
					</g>
				</g>
			</g>
			<g id="XMLID_1758_">
				<g id="XMLID_1762_">
					<g>
						<path id="XMLID_51_" class="st6" d="M59.66,79.09c2.91,5.53,7.71,8.97,11.51,10.69c3.49,1.58,10.47,3.24,10.47,3.24
							c0.74,0.52-1.01-6.71-6.08-15.26c-2.04-3.44-4.76-6.35-8.75-8.19c-1.44-0.66-6.43-2.61-8.53-0.13
							C56.09,72,59.02,77.87,59.66,79.09z"/>
					</g>
				</g>
				<g id="XMLID_1759_">
					<g id="XMLID_1760_">
						<path id="XMLID_1761_" class="st3" d="M58.73,79.49c2.63,4.72,6.5,8.52,11.37,10.91c3.48,1.7,7.89,2.6,11.23,3.58
							c0.46,0.14,0.87,0.05,1.19-0.32c1.64-1.85-2.01-8.41-2.73-9.99c-2.55-5.58-5.65-11.18-11.16-14.29
							c-2.94-1.66-8.49-3.8-11.16-0.56C55.07,71.74,57.25,76.63,58.73,79.49c0.59,1.15,2.46,0.37,1.86-0.78
							c-1.12-2.18-3.82-7.48-0.76-9.19c3.07-1.72,8.62,1.83,10.74,3.67c3.65,3.17,5.89,7.86,7.79,12.22
							c0.64,1.46,1.23,2.95,1.72,4.47c0.19,0.59,0.26,1.47,0.56,1.99c0.27,0.46-0.18,1.07,0.27,0.56c0.4-0.11,0.79-0.21,1.19-0.32
							c-8.79-2.57-16.71-4.78-21.52-13.41C59.96,77.58,58.09,78.35,58.73,79.49z"/>
					</g>
				</g>
			</g>
			<g id="XMLID_1749_">
				<g id="XMLID_1753_">
					<g>
						<path id="XMLID_50_" class="st6" d="M79.23,61.13c-0.68,3.32-0.76,7.09,0.19,10.35c2.8,9.69,8.08,13.46,9.79,17.47
							c0.39,0.92,2.28,2.6,1.75,0.91c-1.45-4.64,0.68-9.02,1.57-11.39c1.8-4.83,1.58-9.11,0.42-12.93
							c-2.57-8.5-7.08-11.27-8.95-11.02C81.57,54.85,79.65,59.06,79.23,61.13z"/>
					</g>
				</g>
				<g id="XMLID_1750_">
					<g id="XMLID_1751_">
						<path id="XMLID_1752_" class="st3" d="M78.23,60.99c-1.43,7.9,0.95,15.16,5.47,21.65c1.56,2.24,3.15,4.38,4.58,6.7
							c0.71,1.16,1.9,2.84,3.38,1.9c0.29-0.19,0.43-0.6,0.38-0.93c-0.46-3.36-0.61-5.87,0.52-9.12c0.9-2.59,1.91-5.02,2.18-7.78
							c0.51-5.16-1.07-10.62-3.9-14.94c-1.35-2.05-3.72-4.89-6.44-4.96C80.85,53.43,78.92,58.19,78.23,60.99
							c-0.31,1.26,1.69,1.53,2,0.28c0.62-2.49,2.49-6.95,5.59-5.18c2.4,1.37,3.99,4.25,5.05,6.68c1.65,3.8,2.41,7.93,1.65,12.04
							c-0.57,3.05-2.14,5.78-2.74,8.82c-0.28,1.38-0.4,2.83-0.24,4.24c0.02,0.21,0.25,2.1,0.43,2.12c1.13,0.13-0.2-2.22-0.3-2.39
							c-0.93-1.65-2.13-3.13-3.25-4.65c-4.76-6.45-7.65-13.56-6.18-21.68C80.46,59.99,78.46,59.71,78.23,60.99z"/>
					</g>
				</g>
			</g>
		</g>
		<g id="XMLID_1729_">
			<g id="XMLID_1742_">
				<g id="XMLID_1746_">
					<path id="XMLID_1747_" class="st1" d="M135.27,55.05c2.04,2.72,3.31,5.96,3.91,9.3c1.76,9.79-0.68,15.47-0.15,19.73
						c0.09,0.72,0.41,0.97-0.14,1.16c-0.4,0.14-0.67-0.58-0.86-0.96c-1.15-2.32-8.41-8.81-11.37-14.68
						c-1.68-3.32-2.91-6.85-2.77-10.6c0.11-2.85,1.18-8.01,3.95-8.98C130.76,48.99,134.56,54.1,135.27,55.05z"/>
				</g>
				<g id="XMLID_1743_">
					<g id="XMLID_1744_">
						<path id="XMLID_1745_" class="st3" d="M134.38,55.54c3.82,5.43,4.75,12.04,4.35,18.55c-0.13,2.11-0.45,4.19-0.65,6.29
							c-0.04,0.37,0.06,4.16,0.11,4.12c0.41-0.04,0.82-0.09,1.23-0.13c-0.67-0.38-1.54-2.1-2.05-2.71c-1.16-1.4-2.42-2.73-3.62-4.1
							c-3.04-3.47-5.85-7.04-7.5-11.39c-1.54-4.06-2.13-9.3,0.1-13.28c2.43-4.34,6.35,0.41,8.19,2.85c0.78,1.04,2.23-0.37,1.46-1.4
							c-1.76-2.34-4.98-6.38-8.4-5.31c-3.65,1.14-4.6,6.7-4.71,9.94c-0.2,5.75,2.52,11.28,5.91,15.76c1.83,2.41,3.88,4.64,5.89,6.91
							c1.15,1.3,2.21,3.62,3.68,4.45c0.43,0.24,0.85,0.15,1.23-0.13c1.18-0.89,0.34-2.94,0.4-4.23c0.12-2.54,0.61-5.06,0.76-7.6
							c0.41-6.82-0.61-13.89-4.61-19.57C135.41,53.51,133.63,54.47,134.38,55.54z"/>
					</g>
				</g>
			</g>
			<g id="XMLID_1736_">
				<g id="XMLID_1740_">
					<path id="XMLID_1741_" class="st1" d="M116.03,71.43c2.04,5.91,6.26,10.03,9.76,12.31c3.21,2.09,9.86,4.78,9.86,4.78
						c0.65,0.62,0.02-6.79-3.69-16.01c-1.49-3.71-3.75-7-7.41-9.42c-1.32-0.87-5.96-3.55-8.41-1.42
						C113.58,63.88,115.58,70.13,116.03,71.43z"/>
				</g>
				<g id="XMLID_1737_">
					<g id="XMLID_1738_">
						<path id="XMLID_1739_" class="st3" d="M115.05,71.68c1.89,5.07,5.13,9.41,9.59,12.5c3.18,2.21,7.4,3.77,10.56,5.24
							c0.44,0.2,0.85,0.18,1.23-0.13c1.9-1.58-0.71-8.62-1.18-10.28c-1.67-5.91-3.89-11.91-8.87-15.82
							c-2.65-2.08-7.82-5.04-10.94-2.25C112.6,63.47,114.02,68.63,115.05,71.68c0.41,1.22,2.37,0.74,1.96-0.49
							c-0.78-2.32-2.64-7.97,0.64-9.2c3.29-1.24,8.25,3.12,10.06,5.26c3.13,3.69,4.63,8.67,5.85,13.26
							c0.41,1.54,0.77,3.11,1.03,4.68c0.1,0.62,0.03,1.5,0.26,2.05c0.2,0.5-0.34,1.03,0.19,0.59c0.41-0.04,0.82-0.09,1.23-0.13
							c-8.3-3.87-15.8-7.25-19.25-16.52C116.56,69.98,114.59,70.46,115.05,71.68z"/>
					</g>
				</g>
			</g>
			<g id="XMLID_1730_">
				<g id="XMLID_1734_">
					<path id="XMLID_1735_" class="st1" d="M138.09,56.63c-1.17,3.17-1.82,6.89-1.38,10.26c1.3,10.01,5.95,14.53,7.03,18.75
						c0.25,0.97,1.86,2.91,1.6,1.16c-0.73-4.81,2.04-8.81,3.27-11.02c2.51-4.51,2.94-8.76,2.37-12.72
						c-1.26-8.79-5.29-12.21-7.18-12.25C141.35,50.78,138.82,54.65,138.09,56.63z"/>
				</g>
				<g id="XMLID_1731_">
					<g id="XMLID_1732_">
						<path id="XMLID_1733_" class="st3" d="M137.13,56.34c-2.61,7.59-1.35,15.13,2.13,22.23c1.2,2.45,2.45,4.81,3.51,7.32
							c0.52,1.25,1.45,3.1,3.06,2.39c0.31-0.14,0.51-0.53,0.52-0.86c0.05-3.39,0.28-5.9,1.9-8.94c1.29-2.42,2.65-4.67,3.33-7.36
							c1.28-5.03,0.55-10.66-1.59-15.36c-1.02-2.23-2.93-5.4-5.62-5.87C140.86,49.27,138.23,53.68,137.13,56.34
							c-0.5,1.2,1.44,1.77,1.93,0.58c0.99-2.37,3.51-6.5,6.31-4.27c2.16,1.72,3.3,4.81,3.98,7.37c1.06,4.01,1.19,8.2-0.2,12.15
							c-1.03,2.93-2.99,5.39-4.05,8.31c-0.48,1.33-0.82,2.74-0.88,4.15c-0.01,0.21-0.07,2.11,0.11,2.16c1.1,0.3,0.14-2.23,0.07-2.41
							c-0.67-1.78-1.63-3.41-2.51-5.09c-3.73-7.1-5.51-14.56-2.83-22.37C139.48,55.69,137.55,55.12,137.13,56.34z"/>
					</g>
				</g>
			</g>
		</g>
		<g id="XMLID_1678_">
			<g id="XMLID_1724_">
				<path id="XMLID_1728_" class="st1" d="M112.03,80.88c0,0,3.59,5.55,2.66,11.08c-0.93,5.53-2.71,8.31-2.71,8.31
					s1.33,1.75,4.62,2.82c3.3,1.08,5.71,0.4,5.71,0.4s0.07-2.46,1.88-8c1.81-5.54,8.68-7.82,8.68-7.82l-1.77-2.84
					c0,0-4.91,2.31-7.59,4.7l2.4-7.34l-4.88-1.59l-2.52,7.71c-0.29-4.25-2.99-8.27-2.99-8.27L112.03,80.88z"/>
				<path id="XMLID_1725_" class="st3" d="M120.33,104.34c-1.04,0-2.39-0.14-3.93-0.64c-3.45-1.13-4.87-2.97-4.93-3.04
					c-0.16-0.21-0.17-0.5-0.03-0.73c0.02-0.03,1.73-2.76,2.62-8.07c0.88-5.23-2.53-10.58-2.56-10.63c-0.11-0.17-0.13-0.39-0.06-0.58
					c0.08-0.19,0.24-0.33,0.44-0.38l3.48-0.83c0.26-0.06,0.53,0.04,0.67,0.26c0.09,0.13,1.81,2.72,2.66,5.98l1.72-5.27
					c0.11-0.33,0.47-0.52,0.8-0.41l4.88,1.59c0.16,0.05,0.29,0.17,0.37,0.32c0.08,0.15,0.09,0.32,0.04,0.48l-1.75,5.36
					c2.66-1.87,5.9-3.41,6.07-3.49c0.29-0.14,0.64-0.03,0.81,0.24l1.77,2.84c0.1,0.16,0.13,0.37,0.06,0.55
					c-0.07,0.18-0.21,0.33-0.4,0.39c-0.07,0.02-6.59,2.25-8.28,7.41c-1.75,5.35-1.85,7.79-1.85,7.82c-0.01,0.28-0.2,0.52-0.46,0.59
					C122.41,104.13,121.61,104.34,120.33,104.34z M112.75,100.19c0.52,0.51,1.8,1.57,4.04,2.31c2.3,0.75,4.13,0.6,4.92,0.48
					c0.11-0.99,0.5-3.45,1.87-7.67c1.54-4.73,6.45-7.16,8.34-7.94l-1.06-1.7c-1.31,0.65-4.85,2.49-6.93,4.35
					c-0.21,0.19-0.53,0.21-0.77,0.06c-0.24-0.16-0.35-0.46-0.26-0.73l2.2-6.74l-3.67-1.2l-2.32,7.11c-0.09,0.29-0.38,0.46-0.68,0.43
					c-0.3-0.04-0.53-0.28-0.55-0.59c-0.22-3.31-2.01-6.52-2.65-7.59l-2.2,0.52c0.96,1.75,3.07,6.22,2.3,10.77
					C114.56,96.5,113.29,99.2,112.75,100.19z"/>
			</g>
			<g id="XMLID_1712_">
				<g id="XMLID_1713_">
					<g id="XMLID_1719_">
						<path id="XMLID_1723_" class="st1" d="M123.5,89.54l2.4-7.34l-2.36-0.77l-0.83,4.61c-0.13,0.7-0.18,1.42-0.14,2.14
							C122.63,89.06,123.5,89.54,123.5,89.54z"/>
						<path id="XMLID_1720_" class="st3" d="M123.5,90.18c-0.11,0-0.21-0.03-0.31-0.08c-0.05-0.03-1.18-0.67-1.25-1.88
							c-0.04-0.72,0.01-1.49,0.15-2.29l0.83-4.61c0.03-0.18,0.14-0.34,0.3-0.43c0.16-0.1,0.35-0.11,0.52-0.06l2.36,0.77
							c0.16,0.05,0.29,0.17,0.37,0.32c0.08,0.15,0.09,0.32,0.04,0.48l-2.4,7.34c-0.06,0.18-0.2,0.32-0.37,0.39
							C123.66,90.16,123.58,90.18,123.5,90.18z M124.04,82.26l-0.7,3.89c-0.13,0.7-0.17,1.36-0.13,1.98c0,0.06,0.01,0.12,0.03,0.17
							l1.86-5.7L124.04,82.26z"/>
					</g>
					<g id="XMLID_1714_">
						<path id="XMLID_1718_" class="st1" d="M132.86,87.69l-1.77-2.84c0,0-0.57,0.27-1.43,0.72l0.84,1.35c0,0-6.87,2.28-8.68,7.82
							c-0.63,1.94-1.05,3.5-1.33,4.71c-0.52,2.24-2.71,3.71-4.96,3.23c-0.04-0.01-0.08-0.02-0.12-0.03
							c0.36,0.16,0.76,0.31,1.18,0.45c3.3,1.08,5.71,0.4,5.71,0.4s0.07-2.46,1.88-8C125.99,89.97,132.86,87.69,132.86,87.69z"/>
						<path id="XMLID_1715_" class="st3" d="M120.33,104.34c-1.04,0-2.39-0.14-3.93-0.64c-0.45-0.15-0.86-0.3-1.24-0.47
							c-0.3-0.13-0.45-0.47-0.35-0.78c0.1-0.31,0.41-0.5,0.74-0.43c2,0.42,3.89-0.81,4.33-2.73c0.33-1.44,0.78-3.04,1.35-4.76
							c1.54-4.73,6.45-7.16,8.34-7.94l-0.44-0.7c-0.09-0.15-0.12-0.33-0.07-0.5c0.05-0.17,0.16-0.31,0.32-0.4
							c0.87-0.45,1.45-0.73,1.45-0.73c0.29-0.14,0.64-0.03,0.81,0.24l1.77,2.84c0.1,0.16,0.13,0.37,0.06,0.55
							c-0.07,0.18-0.21,0.33-0.4,0.39c-0.07,0.02-6.59,2.25-8.28,7.41c-1.75,5.35-1.85,7.79-1.85,7.82
							c-0.01,0.28-0.2,0.52-0.46,0.59C122.41,104.13,121.61,104.34,120.33,104.34z M118.47,102.91c1.49,0.26,2.65,0.15,3.23,0.06
							c0.11-0.99,0.5-3.45,1.87-7.66c1.54-4.73,6.45-7.16,8.34-7.94l-1.06-1.7c-0.09,0.04-0.18,0.09-0.29,0.15l0.48,0.77
							c0.1,0.16,0.13,0.37,0.06,0.55c-0.07,0.18-0.21,0.33-0.4,0.39c-0.07,0.02-6.59,2.25-8.28,7.41c-0.55,1.69-1,3.26-1.32,4.65
							C120.76,101.09,119.75,102.28,118.47,102.91z"/>
					</g>
				</g>
			</g>
			<g id="XMLID_1707_">
				<path id="XMLID_1711_" class="st1" d="M115.51,80.06L115.51,80.06l-0.56,0.13l-1.1,0.26c0.67,1.23,2.23,3.12,2.87,5.34
					c0.3,1.02,0.9,1.93,1.78,2.53C118.21,84.07,115.51,80.06,115.51,80.06z"/>
				<path id="XMLID_1708_" class="st3" d="M118.5,88.96c-0.13,0-0.25-0.04-0.36-0.11c-0.97-0.66-1.69-1.69-2.03-2.88
					c-0.43-1.5-1.33-2.87-2.04-3.97c-0.3-0.46-0.57-0.88-0.77-1.24c-0.1-0.17-0.1-0.38-0.02-0.56c0.08-0.18,0.24-0.31,0.43-0.36
					l1.67-0.39c0.26-0.06,0.52,0.04,0.67,0.26c0.11,0.17,2.8,4.21,3.1,8.58c0.02,0.24-0.11,0.47-0.32,0.59
					C118.72,88.93,118.61,88.96,118.5,88.96z M114.84,80.87c0.09,0.14,0.19,0.28,0.28,0.44c0.76,1.17,1.72,2.63,2.2,4.31
					c0.04,0.15,0.09,0.3,0.15,0.44c-0.62-2.4-1.77-4.46-2.26-5.27L114.84,80.87z"/>
			</g>
			<g id="XMLID_1701_">
				<g id="XMLID_1705_">
					<path id="XMLID_1706_" class="st1" d="M108.68,83.99c-4.83-1.01-6.65-5.47-4.83-9.14c-1.48-0.72-4.32-4.85-1.86-8.93
						c2.08-3.46,6.67-3.53,9.49-1.87c0.59-3.11,3.3-5.69,6.43-6.14c3.13-0.45,6.45,1.27,7.9,4.08c2.93-2.53,7.49-2.96,10.85-1.03
						c3.36,1.93,5.27,6.09,4.55,9.9c3.03-1.07,6.76,0.8,7.71,3.87c0.95,3.07-1.08,6.72-4.19,7.54c1.83,1.95,2.23,5.1,0.95,7.45
						c-1.28,2.35-4.15,3.71-6.78,3.22c-2.63-0.49-4.69-2.16-5.04-4.81c-1.66,0.67-3.83-0.38-5.1-1.65c-1.27-1.27-1.68-3.31-1-4.98
						c-1.6,1.67-4.11,1.92-6.38,1.47c-2.21-0.44-3.1-1.72-4.36-4.29C115.18,83.07,112.81,84.85,108.68,83.99z"/>
				</g>
				<g id="XMLID_1702_">
					<g id="XMLID_1703_">
						<path id="XMLID_1704_" class="st3" d="M108.84,83.38c-3.85-1.01-6.1-4.37-4.45-8.21c0.14-0.32,0.09-0.67-0.23-0.87
							c-3.01-1.91-3.26-6.85-0.7-9.21c2.11-1.94,5.3-1.74,7.69-0.49c0.35,0.19,0.83,0.03,0.93-0.38c1.65-6.46,9.73-7.62,13.17-1.91
							c0.16,0.27,0.59,0.44,0.87,0.23c6.47-4.98,15.58-0.1,14.46,8.15c-0.06,0.46,0.27,0.92,0.78,0.78
							c6.69-1.81,10.07,7.74,3.18,10.19c-0.48,0.17-0.59,0.68-0.28,1.06c6.15,7.63-7.93,14.15-9.81,5.23
							c-0.07-0.35-0.46-0.52-0.78-0.44c-3.59,0.83-6.25-2.64-5.32-5.84c0.19-0.65-0.6-1.01-1.06-0.62
							c-3.83,3.29-7.84,1.06-9.74-2.69c-0.2-0.4-0.9-0.43-1.1,0C114.92,81.82,112.85,84.05,108.84,83.38
							c-0.8-0.13-1.14,1.09-0.34,1.22c4.62,0.78,7.23-1.51,9.05-5.6c-0.37,0-0.73,0-1.1,0c1.1,2.17,2.23,4.01,4.74,4.59
							c2.55,0.59,5.03,0.05,7-1.63c-0.35-0.21-0.71-0.41-1.06-0.62c-0.92,3.17,0.67,6.24,3.85,7.31c0.05,0.02,2.25,0.36,2.17,0.3
							c0.51,0.39,0.65,1.27,1.03,1.83c0.71,1.05,1.74,1.79,2.89,2.29c7.14,3.06,12.75-5.46,8.1-11.22
							c-0.09,0.35-0.19,0.71-0.28,1.06c8.22-2.92,4.64-14.93-3.86-12.64c0.26,0.26,0.52,0.52,0.78,0.78
							c1.08-7.97-6.7-14.54-14.3-10.88c-2.31,1.11-1.95-0.19-3.89-1.48c-1.67-1.11-3.72-1.65-5.72-1.38
							c-3.56,0.47-6.18,3.23-7.04,6.61c0.31-0.13,0.62-0.25,0.93-0.38c-5.89-3.07-13.52,1.41-10.91,8.46
							c0.42,1.13,1.95,2.22,2.24,3.18c0.13,0.42-0.65,2.62-0.56,3.41c0.39,3.25,2.93,5.25,5.94,6.04
							C109.3,84.81,109.63,83.59,108.84,83.38z"/>
					</g>
				</g>
			</g>
			<g id="XMLID_1696_">
				<circle id="XMLID_1700_" class="st1" cx="118.26" cy="64.09" r="2.57"/>
				<path id="XMLID_1697_" class="st3" d="M118.26,67.3c-0.33,0-0.67-0.05-1-0.16c-0.81-0.27-1.48-0.83-1.86-1.6
					c-0.39-0.76-0.45-1.63-0.19-2.45c0.27-0.81,0.83-1.47,1.59-1.86c0.76-0.39,1.63-0.45,2.44-0.19c0.81,0.27,1.48,0.83,1.86,1.6
					c0.39,0.76,0.45,1.63,0.19,2.44l0,0l0,0v0c-0.26,0.81-0.83,1.47-1.59,1.86C119.26,67.18,118.76,67.3,118.26,67.3z M118.26,62.16
					c-0.3,0-0.6,0.07-0.87,0.21c-0.46,0.23-0.8,0.63-0.96,1.13c-0.16,0.49-0.12,1.02,0.11,1.48c0.23,0.46,0.63,0.8,1.12,0.96
					c0.49,0.16,1.01,0.12,1.48-0.11c0.46-0.23,0.8-0.63,0.96-1.12c0,0,0,0,0,0c0.16-0.49,0.12-1.02-0.11-1.48
					c-0.23-0.46-0.63-0.8-1.12-0.96C118.66,62.19,118.46,62.16,118.26,62.16z"/>
			</g>
			<g id="XMLID_1691_">
				<circle id="XMLID_1695_" class="st1" cx="106.87" cy="69.59" r="2.57"/>
				<path id="XMLID_1692_" class="st3" d="M106.87,72.79c-0.33,0-0.67-0.05-1-0.16c-0.81-0.26-1.47-0.83-1.86-1.59
					c-0.39-0.76-0.45-1.63-0.19-2.45c0.55-1.68,2.36-2.6,4.04-2.05c1.68,0.55,2.6,2.36,2.05,4.04c-0.27,0.81-0.83,1.48-1.59,1.86
					C107.86,72.68,107.37,72.79,106.87,72.79z M106.87,67.65c-0.81,0-1.58,0.52-1.84,1.33c-0.16,0.49-0.12,1.02,0.11,1.48
					c0.23,0.46,0.63,0.8,1.12,0.96c0.49,0.16,1.02,0.12,1.48-0.11c0.46-0.23,0.8-0.63,0.96-1.12l0,0c0.33-1.01-0.22-2.11-1.24-2.44
					C107.27,67.68,107.07,67.65,106.87,67.65z"/>
			</g>
			<g id="XMLID_1686_">
				<circle id="XMLID_1690_" class="st1" cx="110.17" cy="78.31" r="2.57"/>
				<path id="XMLID_1687_" class="st3" d="M110.17,81.52c-0.33,0-0.67-0.05-1-0.16c-0.81-0.27-1.48-0.83-1.86-1.6
					c-0.39-0.76-0.45-1.63-0.19-2.44c0.55-1.68,2.37-2.6,4.04-2.05c1.68,0.55,2.6,2.36,2.05,4.04l0,0c-0.27,0.81-0.83,1.48-1.6,1.86
					C111.16,81.4,110.67,81.52,110.17,81.52z M110.17,76.37c-0.82,0-1.58,0.52-1.84,1.33c-0.16,0.49-0.12,1.02,0.11,1.48
					c0.23,0.46,0.63,0.8,1.12,0.96c0.49,0.16,1.01,0.12,1.48-0.11c0.46-0.23,0.8-0.63,0.96-1.12c0.33-1.01-0.22-2.11-1.24-2.44
					C110.57,76.4,110.37,76.37,110.17,76.37z"/>
			</g>
			<g id="XMLID_1679_">
				<g id="XMLID_1680_">
					<g id="XMLID_1684_">
						<path id="XMLID_1685_" class="st6" d="M144.72,82.28c3.11-0.82,5.14-4.47,4.19-7.54c-0.95-3.07-4.68-4.95-7.71-3.87
							c0.72-3.81-1.19-7.97-4.55-9.9c-3.36-1.93-7.92-1.5-10.85,1.03c-1.09-2.11-3.23-3.6-5.56-4.03c3.16,1.8,4.16,5.43,3.11,8.15
							c1.21-0.55,3.62-0.51,5.16,0.51c1.54,1.02,2.31,3.08,1.81,4.87c1.96,0.07,3.78,1.02,4.33,3.15c0.46,1.79-0.79,4.32-1.93,5.19
							c1.2,1.6,0.42,4.66-1.28,5.72c-1.06,0.66-2.03,0.73-2.96,0.61c0.09,0.11,0.17,0.22,0.27,0.32c1.27,1.27,3.44,2.32,5.1,1.65
							c0.35,2.65,2.41,4.32,5.04,4.81c2.63,0.49,5.5-0.87,6.78-3.22C146.96,87.38,146.55,84.23,144.72,82.28z"/>
					</g>
					<g id="XMLID_1681_">
						<g id="XMLID_1682_">
							<path id="XMLID_1683_" class="st3" d="M144.89,82.89c8.22-2.92,4.64-14.93-3.86-12.64c0.26,0.26,0.52,0.52,0.78,0.78
								c0.71-5.25-2.29-10.56-7.69-11.69c-1.05-0.22-2.16-0.26-3.22-0.15c-0.97,0.1-1.9,0.33-2.8,0.69c-0.24,0.09-1.67,1-1.85,0.98
								c-0.87-0.13-1.5-1.37-2.31-1.96c-1.08-0.79-2.23-1.23-3.52-1.54c-0.71-0.17-1.09,0.77-0.49,1.16
								c2.63,1.72,3.77,4.42,2.82,7.44c-0.14,0.45,0.33,0.93,0.78,0.78c3.16-1.02,6.8,0.74,6.19,4.6c-0.07,0.44,0.17,0.76,0.61,0.8
								c4.19,0.43,4.53,4.79,1.95,7.26c-0.21,0.2-0.23,0.53-0.1,0.77c1.53,2.73-0.63,5.51-3.7,5.37c-0.59-0.03-0.78,0.69-0.45,1.08
								c0.87,1.02,2.1,1.82,3.41,2.16c1.66,0.42,1.46-0.12,2.33,1.3c1.41,2.29,3.69,3.67,6.44,3.59c6.26-0.18,8.6-7.31,4.95-11.83
								c-0.51-0.64-1.41,0.27-0.9,0.9c6.15,7.63-7.93,14.15-9.81,5.23c-0.07-0.35-0.46-0.52-0.78-0.44
								c-1.81,0.42-3.63-0.49-4.75-1.8c-0.15,0.36-0.3,0.72-0.45,1.08c2.09,0.09,3.94-0.62,4.89-2.6c0.79-1.63,0.03-3.05,0.39-4.51
								c0.27-1.1,1.31-1.96,1.52-3.21c0.16-0.98,0.09-1.93-0.33-2.84c-0.87-1.88-2.69-2.58-4.63-2.78c0.2,0.27,0.41,0.54,0.61,0.8
								c0.74-4.64-3.41-7.55-7.75-6.16c0.26,0.26,0.52,0.52,0.78,0.78c1.11-3.55-0.36-6.88-3.41-8.87
								c-0.16,0.39-0.33,0.77-0.49,1.16c2.3,0.56,3.97,1.71,5.18,3.74c0.16,0.27,0.59,0.44,0.87,0.23
								c6.47-4.98,15.58-0.1,14.46,8.15c-0.06,0.46,0.27,0.92,0.78,0.78c6.69-1.81,10.07,7.74,3.18,10.19
								C143.79,81.94,144.12,83.16,144.89,82.89z"/>
						</g>
					</g>
				</g>
			</g>
		</g>
		<g id="XMLID_1664_">
			<g id="XMLID_1665_">
				<g id="XMLID_1672_">
					<g id="XMLID_1676_">
						<path id="XMLID_1677_" class="st6" d="M100.2,101.61c0.92-1.45,2.04-2.87,3.61-3.59c1.66-0.77,3.64-0.66,5.28-1.48
							c2.57-1.28,4.35-4.76,7.17-4.24c1.96,0.36,3.06,2.59,4.94,3.27c2.68,0.97,3.69-1.18,6.27,0.03c3.07,1.45,2.06,5.28,4.9,7.15
							c1.63,1.07,4.26,1.26,5,4.3c0.31,1.29-0.82,3.77-0.85,5.09c-0.04,1.7,0.97,2.42,1.28,4.09c0.41,2.19,0.1,3.58-3.41,6.35
							c-2.07,1.64-2.75,2.11-2.52,4.74c0.29,3.3-0.97,4.08-2.24,4.52c-1.63,0.56-2.44,0.36-3.97,1.01c-2.31,0.99-2.26,3.67-4.9,4.03
							c-2.85,0.39-3.81-1.5-6.43-1.89c-1.47-0.22-2.9,0.53-4.4,0.48c-1.9-0.05-3.77-0.62-5.33-1.72c-3.07-2.15-5.63-4.98-7.28-8.32
							C94.09,118.84,95.64,108.81,100.2,101.61z"/>
					</g>
					<g id="XMLID_1673_">
						<g id="XMLID_1674_">
							<path id="XMLID_1675_" class="st3" d="M100.94,102.04c2.93-4.17,6.31-3.29,9.8-5.56c0.83-0.54,1.48-1.54,2.36-1.99
								c2.52-1.29,3.81-0.15,6.2,0.94c1.22,0.56,1.88,0.95,3.21,1.24c0.5,0.11,1.03-0.26,1.53-0.19c3.44,0.43,4.13,1.16,5.58,3.95
								c1.92,3.69,6.55,4.13,6.62,8.93c0.03,1.78-0.6,2.65-0.31,4.46c0.64,3.88,1.58,2.26,0.24,5.17c-0.94,2.04-2.06,2.33-3.47,3.86
								c-0.75,0.82-1.17,1.38-1.57,2.41c-1.26,3.15,0.37,4.94-3.74,6.24c-1.67,0.53-2.47,1.1-3.88,2.01
								c-2.37,1.53-4.91,1.45-7.54,1.05c-2.13-0.32-3.93,0.25-6.02,0.07c-5.21-0.46-9.7-5.11-11.87-9.62
								C94.56,117.71,97.07,108.64,100.94,102.04c0.56-0.95-0.92-1.81-1.48-0.86c-6.9,11.75-6.78,32.82,10.48,35.16
								c2.28,0.31,4.79,0.22,7.1,0.63c0.75,0.13,1.38,0.68,2.22,0.77c4,0.44,4.55-3.04,7.99-4.48c1.56-0.65,3.38-0.35,4.55-1.81
								c0.67-0.84,0.61-1.41,0.93-2.43c-0.19-1.76,0.2-3.41,1.19-4.96c0.88-0.69,1.74-1.41,2.58-2.15c1.8-1.88,2.27-3.12,2.16-5.68
								c-0.03-0.66-0.47-1.23-0.59-1.86c-0.66-3.19,0.16-3.45,0.17-6.17c0.01-2.32-0.9-3.38-2.59-4.78
								c-1.65-1.38-3.37-1.94-4.6-4.04c-0.69-1.18-0.72-2.4-1.74-3.46c-1.52-1.59-2.73-1.15-4.6-1.41c-2.32-0.32-4.5-1.74-6.67-2.39
								c-0.53-0.16-1.15-0.61-1.77-0.69c-3.39-0.39-6.31,3.72-9.13,4.84c-3.62,1.44-5.31,1.53-7.67,4.89
								C98.83,102.08,100.31,102.94,100.94,102.04z"/>
						</g>
					</g>
				</g>
				<g id="XMLID_1670_">
					<path id="XMLID_1671_" class="st3" d="M115.28,120.82c0.21,0.08,0.42,0.15,0.64,0.21c0.42,0.14,0.86,0.26,1.29,0.37
						c0.44,0.09,0.87,0.2,1.32,0.26c0.44,0.08,0.89,0.11,1.34,0.16c0.45,0.03,0.9,0.06,1.35,0.06c0.45,0.01,0.9-0.03,1.36-0.05
						c0.23-0.02,0.45-0.04,0.68-0.07c0.23-0.02,0.45-0.05,0.68-0.09l0.68-0.11l0.67-0.14c0.45-0.08,0.89-0.22,1.34-0.34
						c0.45-0.12,0.88-0.29,1.33-0.42c-0.41,0.22-0.82,0.46-1.24,0.66c-0.43,0.19-0.85,0.4-1.3,0.55c-0.22,0.08-0.44,0.17-0.67,0.24
						l-0.68,0.2c-0.23,0.07-0.46,0.13-0.69,0.18c-0.23,0.05-0.46,0.11-0.7,0.16c-0.47,0.07-0.94,0.16-1.42,0.19
						c-0.48,0.06-0.96,0.06-1.44,0.08c-0.48,0-0.96-0.01-1.44-0.06c-0.48-0.03-0.96-0.11-1.44-0.18c-0.47-0.09-0.95-0.18-1.42-0.3
						c-0.24-0.06-0.47-0.13-0.7-0.2c-0.23-0.07-0.46-0.14-0.69-0.22c-0.92-0.31-1.8-0.7-2.66-1.14c-0.43-0.22-0.85-0.46-1.26-0.72
						c-0.41-0.25-0.82-0.51-1.21-0.8c-0.39-0.28-0.78-0.57-1.15-0.88c-0.38-0.32-0.73-0.62-1.1-1l-0.58-0.6l0.61-0.57
						c0.91-0.85,1.84-1.66,2.78-2.46c0.47-0.4,0.94-0.79,1.42-1.18c0.48-0.39,0.95-0.78,1.43-1.16l-0.27,0.6l0.03-0.94
						c0.02-0.31,0-0.63,0.06-0.94l0.13-0.94c0.03-0.31,0.12-0.62,0.19-0.92c0.08-0.3,0.14-0.61,0.24-0.91l0.31-0.89
						c0.09-0.3,0.25-0.58,0.38-0.86c0.13-0.28,0.26-0.57,0.43-0.83c0.16-0.27,0.31-0.54,0.48-0.8l0.54-0.76
						c0.19-0.24,0.4-0.48,0.6-0.71c0.2-0.24,0.43-0.45,0.64-0.67c0.21-0.22,0.45-0.42,0.68-0.62c0.24-0.2,0.48-0.38,0.72-0.57
						c0.49-0.36,1.01-0.68,1.56-0.94c-0.24,0.18-0.48,0.37-0.7,0.57c-0.23,0.2-0.44,0.41-0.65,0.61c-0.21,0.21-0.41,0.43-0.61,0.65
						c-0.19,0.23-0.39,0.45-0.57,0.68c-0.17,0.24-0.36,0.46-0.53,0.71c-0.16,0.25-0.32,0.49-0.48,0.74l-0.43,0.76
						c-0.14,0.26-0.25,0.53-0.37,0.79c-0.13,0.26-0.22,0.53-0.32,0.81c-0.09,0.27-0.21,0.54-0.27,0.82l-0.23,0.83
						c-0.07,0.28-0.1,0.57-0.16,0.85c-0.05,0.28-0.11,0.56-0.12,0.85l-0.06,0.86c-0.04,0.28,0,0.58-0.01,0.86l0.01,0.86l0.01,0.36
						l-0.27,0.24l-2.75,2.42c-0.91,0.81-1.83,1.62-2.7,2.45l0.03-1.17c0.28,0.28,0.63,0.59,0.96,0.87c0.34,0.29,0.69,0.56,1.06,0.82
						c0.36,0.27,0.73,0.52,1.11,0.76c0.38,0.24,0.76,0.47,1.15,0.69c0.39,0.22,0.79,0.43,1.19,0.62"/>
				</g>
				<g id="XMLID_1668_">
					<path id="XMLID_1669_" class="st3" d="M103.77,105.02c-0.35,0.71-0.65,1.43-0.92,2.16c-0.27,0.73-0.52,1.47-0.72,2.22
						c-0.1,0.37-0.2,0.75-0.28,1.12c-0.09,0.37-0.16,0.75-0.22,1.13c-0.12,0.76-0.21,1.51-0.23,2.26c-0.03,0.75,0.01,1.5,0.1,2.24
						c0.09,0.74,0.25,1.46,0.48,2.15c0.45,1.39,1.19,2.68,2.13,3.8l0.38,0.44l-0.29,0.5l-1.26,2.14l-0.05-0.9
						c0.17,0.21,0.4,0.48,0.62,0.71c0.23,0.24,0.46,0.47,0.7,0.69c0.49,0.45,1,0.87,1.54,1.26c0.54,0.39,1.1,0.76,1.68,1.09
						c0.29,0.17,0.58,0.33,0.88,0.48c0.3,0.15,0.6,0.3,0.91,0.42c0.31,0.14,0.62,0.25,0.94,0.37c0.32,0.11,0.64,0.23,0.96,0.32
						c0.32,0.1,0.65,0.19,0.98,0.27c0.33,0.08,0.66,0.15,1,0.22c0.34,0.06,0.67,0.13,1.02,0.16c0.34,0.05,0.68,0.08,1.03,0.12
						c0.34,0.04,0.69,0.04,1.04,0.07c0.35,0.02,0.7,0.01,1.05,0.03c-0.34,0.07-0.69,0.14-1.04,0.2c-0.35,0.04-0.7,0.1-1.05,0.12
						l-0.53,0.04c-0.18,0.01-0.35,0.01-0.53,0.01c-0.36,0.01-0.71,0-1.07-0.01c-0.36-0.02-0.71-0.04-1.07-0.09
						c-0.35-0.05-0.71-0.09-1.06-0.16c-0.36-0.06-0.7-0.15-1.06-0.22c-0.35-0.1-0.7-0.19-1.04-0.31c-0.35-0.11-0.68-0.24-1.02-0.37
						c-0.34-0.14-0.67-0.28-1-0.44c-0.33-0.16-0.65-0.33-0.96-0.51c-0.32-0.18-0.63-0.37-0.93-0.57c-0.3-0.2-0.6-0.41-0.89-0.63
						c-0.29-0.22-0.58-0.45-0.85-0.69c-0.28-0.24-0.54-0.49-0.8-0.75c-0.27-0.27-0.5-0.52-0.76-0.86l-0.33-0.42l0.28-0.48l1.25-2.15
						l0.08,0.95c-1.08-1.28-1.91-2.8-2.35-4.42c-0.23-0.81-0.37-1.64-0.42-2.46c-0.06-0.83-0.03-1.66,0.07-2.47
						c0.09-0.81,0.24-1.62,0.46-2.4c0.11-0.39,0.23-0.78,0.36-1.16c0.13-0.38,0.27-0.76,0.43-1.13c0.32-0.74,0.66-1.46,1.06-2.15
						C102.84,106.31,103.27,105.64,103.77,105.02z"/>
				</g>
				<g id="XMLID_1666_">
					<path id="XMLID_1667_" class="st3" d="M127.19,108.02c-20.99-1.1-28.52,19.65-28.54,19.71c0.83,1.24,1.79,2.39,2.85,3.45
						C105.89,109.81,127.19,108.02,127.19,108.02z"/>
				</g>
			</g>
		</g>
		<g id="XMLID_173_">
			<path id="XMLID_1661_" class="st7" d="M129.08,157.14c-2.84-2.09-4.9-3.05-7.75-4.38c-0.83-0.38-1.71-0.8-2.69-1.27
				c-2.59-1.25-5.13-3.27-6.57-5.78c-0.66,0.09-1.97,0.44-2.92,1.9c-0.26,0.4-0.68,1.04-0.93,1.89c0.13,0.69,0.17,1.43,0.09,2.21
				c0.89-0.5,2.1-1.45,2.9-3.24c0.1-0.23,0.31-0.39,0.55-0.43c0.25-0.05,0.49,0.04,0.66,0.22l4.57,4.75
				c0.19,0.2,0.25,0.48,0.17,0.74c-0.05,0.17-1.1,3.31-3.36,4.74c3.75,2.44,7.91,3.29,11.46,2.31c2.04-0.57,3.66-1.69,4.65-3.21
				C129.62,157.43,129.3,157.3,129.08,157.14z"/>
			<path id="XMLID_1658_" class="st8" d="M115.59,153.69l-3.53-3.67c-1.09,1.83-2.52,2.75-3.5,3.21c0.6,1.28,1.77,2.73,3.85,4.3
				C114.15,156.9,115.22,154.63,115.59,153.69z"/>
			<path id="XMLID_1655_" class="st7" d="M130.63,140.22c-2.16-0.23-4.4-0.47-7.21-1.6c-2.33-0.94-3.74-2.23-4.6-3.51
				c-1.01,0.15-3.75,0.88-5.07,4.36c-0.77,2.02-0.36,3.77,0.52,5.22c0.99-0.79,2.68-2.55,3.15-5.67c0.04-0.24,0.19-0.45,0.42-0.56
				c0.22-0.1,0.48-0.09,0.7,0.03l7.32,4.37c0.23,0.14,0.37,0.39,0.36,0.67c-0.01,0.24-0.25,5.01-2.98,7.4
				c2.47,1.16,4.59,2.22,7.31,4.22c1.64,1.2,7.37,2.14,13.43,0.66c3.48-0.84,8.03-2.74,10.62-6.98c-0.06-0.04-0.16-0.09-0.22-0.13
				c-3.27-0.81-6.86-2.21-10.79-4.35C137.33,140.94,133.92,140.57,130.63,140.22z"/>
			<path id="XMLID_1652_" class="st8" d="M115.15,145.88c1.62,1.85,3.84,3.04,4.57,3.39c0.72,0.35,1.36,0.64,1.99,0.94
				c2.29-1.39,2.86-5.04,2.99-6.3l-6.02-3.6C117.94,143.29,116.22,145.03,115.15,145.88z"/>
			<path id="XMLID_1649_" class="st7" d="M148.18,125.45c-1.07-0.25-2.57-0.27-4.17-0.29c-3.78-0.05-8.06-0.1-10.44-3
				c-0.55-0.67-0.9-1.48-1.17-2.36l-0.06-0.02c-1.11,0.07-6.66,0.59-9.77,4.5c-2.11,2.66-3,5.61-2.4,7.88
				c0.14,0.53,0.38,1.01,0.67,1.47c1.21-0.97,3.37-3.16,4.39-7.21c0.05-0.2,0.18-0.37,0.37-0.47c0.18-0.1,0.39-0.11,0.59-0.05
				l10.19,3.52c0.32,0.11,0.53,0.43,0.5,0.76c-0.02,0.26-0.53,5.18-3.39,7.88c2.82,0.43,6.23,1.34,11.28,4.09
				c10.52,5.73,18.44,6.44,22.3,2c3.2-3.68,5.08-8.56,5.81-10.72l-0.68-0.23c-6.56-0.91-12.87-3.47-17.67-5.45
				C151.95,126.73,149.73,125.82,148.18,125.45z"/>
			<path id="XMLID_1646_" class="st8" d="M121.81,134.78c0.67,0.61,1.5,1.13,2.53,1.55c2.5,1.01,4.38,1.2,6.55,1.44
				c0.15,0.02,0.31,0.03,0.46,0.05c2.82-1.44,3.74-5.63,3.97-7.17l-8.87-3.07C125.27,131.52,123.14,133.72,121.81,134.78z"/>
			<path id="XMLID_1643_" class="st8" d="M151.97,114.9l-9.33-1.03c-0.28,4.09-1.87,7.02-2.94,8.57c1.39,0.19,2.9,0.24,4.34,0.25
				c1.74,0.02,3.38,0.04,4.7,0.35c0.14,0.03,0.3,0.09,0.45,0.13C152.15,121.36,152.09,116.56,151.97,114.9z"/>
			<path id="XMLID_1640_" class="st7" d="M190.35,111.21c-0.42-4.29-1.86-7.12-3.28-8.93c0.03,0.85,0.06,1.64,0.08,2.31
				c0.05,1.76-0.61,3.45-1.79,4.63c-1.45,1.44-4.08,3.32-7.96,3.32c-1.85,0-3.98-0.42-6.4-1.52c-2.25-1.02-3.9-2.81-5.1-5.07
				c-4.67-1.57-10.23-2.82-15.47-2.41c-11.39,0.88-15.35,9.83-15.75,10.81c-0.52,2.88-0.26,4.99,0.79,6.26
				c0.62,0.76,1.59,1.18,2.65,1.49c0.93-1.23,2.96-4.42,3.07-9.05c0.01-0.21,0.1-0.4,0.25-0.54c0.16-0.14,0.36-0.21,0.57-0.18
				l10.72,1.18c0.34,0.04,0.61,0.3,0.65,0.64c0.04,0.29,0.81,6.48-2.52,9.57c1.36,0.48,2.89,1.1,4.6,1.8
				c5.53,2.27,13.1,5.37,20.5,5.6c3.7,0.11,7.08-1.26,9.62-3.98C189.12,123.34,190.95,117.24,190.35,111.21z"/>
			<g id="XMLID_1607_">
				<g>
					<g id="XMLID_102_">
						<path class="st9" d="M132.41,119.86c-0.01-0.02-0.01-0.03-0.02-0.05l-0.05-0.02C132.36,119.82,132.39,119.84,132.41,119.86z"
							/>
					</g>
					<g id="XMLID_101_">
						<path class="st9" d="M115.86,151.29c0.08-0.26,0.02-0.54-0.17-0.74l-4.44-4.62c-0.66,0.24-1.45,0.69-2.1,1.67
							c-0.26,0.4-0.68,1.04-0.93,1.89c0.13,0.69,0.17,1.43,0.09,2.21c0.89-0.5,2.1-1.45,2.9-3.24c0.1-0.23,0.31-0.39,0.55-0.43
							c0.25-0.05,0.49,0.04,0.66,0.22l3.3,3.43C115.79,151.48,115.85,151.32,115.86,151.29z"/>
					</g>
					<g id="XMLID_100_">
						<path class="st9" d="M127.73,156.21c-0.97,0.97-2.25,1.71-3.77,2.13c-2.77,0.76-5.89,0.38-8.92-0.96
							c-0.37,0.41-0.78,0.79-1.25,1.09c3.75,2.44,7.91,3.29,11.46,2.31c2.04-0.57,3.66-1.69,4.65-3.21
							c-0.28-0.14-0.6-0.28-0.82-0.43C128.6,156.79,128.17,156.5,127.73,156.21z"/>
					</g>
					<g id="XMLID_99_">
						<path class="st9" d="M190.35,111.21c-0.36-3.61-1.43-6.14-2.61-7.94c0.61,1.49,1.1,3.3,1.31,5.5
							c0.59,6.03-1.23,12.13-4.76,15.91c-2.54,2.72-5.92,4.09-9.62,3.98c-7.4-0.23-14.97-3.33-20.5-5.6
							c-0.75-0.31-1.45-0.59-2.13-0.86c-0.32,0.55-0.7,1.06-1.18,1.51c1.36,0.48,2.89,1.1,4.6,1.8c5.53,2.27,13.1,5.37,20.5,5.6
							c3.7,0.11,7.08-1.26,9.62-3.98C189.12,123.34,190.95,117.24,190.35,111.21z"/>
					</g>
					<g id="XMLID_98_">
						<path class="st9" d="M170.86,132.97c-0.98,2.46-2.65,5.96-5.09,8.76c-3.86,4.44-11.78,3.73-22.3-2
							c-3.54-1.93-6.25-2.93-8.54-3.51c-0.4,0.67-0.86,1.32-1.44,1.87c2.82,0.43,6.23,1.34,11.28,4.09c10.52,5.73,18.44,6.44,22.3,2
							c3.2-3.68,5.08-8.56,5.81-10.72l-0.68-0.23C171.75,133.17,171.31,133.04,170.86,132.97z"/>
					</g>
					<g id="XMLID_97_">
						<path class="st9" d="M152.09,148.04c-2.65,3.09-6.41,4.6-9.4,5.32c-6.07,1.48-11.79,0.54-13.43-0.66
							c-1.82-1.34-3.37-2.25-4.94-3.05c-0.31,0.46-0.66,0.9-1.08,1.27c2.47,1.16,4.59,2.22,7.31,4.22c1.64,1.2,7.37,2.14,13.43,0.66
							c3.48-0.84,8.03-2.74,10.62-6.98c-0.06-0.04-0.16-0.09-0.22-0.13C153.63,148.51,152.87,148.29,152.09,148.04z"/>
					</g>
				</g>
			</g>
			<path id="XMLID_1585_" class="st3" d="M192.81,110.96c-0.69-6.99-3.78-10.64-5.93-12.39c-0.49-8.02-1.74-19.78-4.91-28.1
				c-5.18-13.58-20.12-17.21-20.75-17.36c-0.44-0.1-0.89,0.04-1.19,0.37c-0.3,0.33-0.4,0.79-0.27,1.22
				c0.04,0.11,3.57,11.13,3.55,19.23c0,1.34-0.08,3.06-0.18,5.02c-0.34,7.27-0.78,16.97,1.52,23.97c-4.45-1.31-9.5-2.23-14.42-1.86
				c-13.55,1.05-17.74,12.04-17.91,12.5c-0.03,0.07-0.04,0.13-0.06,0.2c-0.25,1.32-0.3,2.48-0.27,3.56
				c-1.73,0.12-7.75,0.85-11.38,5.43c-2.63,3.31-3.67,6.98-2.85,10.05c0,0,0,0,0,0c-1.77,0.42-4.79,1.71-6.34,5.78
				c-0.65,1.71-0.66,3.31-0.3,4.79c-1.18,0.28-2.83,1-4.06,2.86c-0.04,0.06-0.07,0.12-0.11,0.18c-0.04-0.06-0.07-0.13-0.11-0.18
				c-1.23-1.87-2.88-2.58-4.06-2.87c0.36-1.48,0.35-3.08-0.3-4.79c-1.55-4.07-4.56-5.35-6.34-5.78c0,0,0,0,0,0
				c0.81-3.07-0.23-6.74-2.85-10.05c-3.63-4.58-9.65-5.31-11.38-5.43c0.03-1.08-0.02-2.24-0.27-3.56c-0.01-0.07-0.03-0.13-0.06-0.2
				c-0.17-0.47-4.36-11.46-17.91-12.5c-4.91-0.37-9.97,0.54-14.42,1.86c2.3-7.01,1.86-16.7,1.52-23.97
				c-0.09-1.96-0.17-3.68-0.18-5.02c-0.01-8.1,3.52-19.12,3.55-19.23c0.14-0.42,0.04-0.89-0.27-1.22c-0.3-0.33-0.75-0.47-1.19-0.37
				c-0.63,0.15-15.57,3.77-20.75,17.36c-3.17,8.32-4.42,20.08-4.91,28.1c-2.15,1.75-5.24,5.41-5.93,12.39
				c-0.66,6.72,1.41,13.56,5.42,17.84c2.92,3.13,6.71,4.77,10.99,4.77c0.17,0,0.35,0,0.52-0.01c0.15,0,0.29-0.03,0.44-0.03
				c0.55,1.78,2.58,7.73,6.52,12.26c2.15,2.48,5.21,3.71,9.01,3.71c0.87,0,1.81-0.12,2.75-0.25c2.93,5.55,8.44,7.94,12.61,8.95
				c2.35,0.57,4.71,0.82,6.88,0.82c2.06,0,3.91-0.23,5.45-0.61c1.29,2.27,3.47,3.96,6.32,4.75c1.19,0.33,2.44,0.49,3.71,0.49
				c3.35,0,6.89-1.14,10.1-3.3c2.52-1.7,4.14-3.38,5.14-4.97c1,1.59,2.62,3.27,5.14,4.97c3.21,2.17,6.74,3.3,10.1,3.3
				c1.27,0,2.52-0.16,3.71-0.49c2.84-0.79,5.03-2.48,6.32-4.75c1.54,0.38,3.4,0.61,5.45,0.61c2.17,0,4.53-0.25,6.88-0.82
				c4.17-1.01,9.68-3.4,12.61-8.95c0.94,0.13,1.88,0.25,2.75,0.25c3.8,0,6.86-1.24,9.01-3.71c3.94-4.53,5.97-10.48,6.52-12.26
				c0.15,0.01,0.29,0.03,0.44,0.03c0.18,0.01,0.35,0.01,0.52,0.01c4.27,0,8.06-1.64,10.99-4.77
				C191.4,124.52,193.47,117.69,192.81,110.96z M175.97,131.1c-7.4-0.23-14.97-3.33-20.5-5.6c-1.71-0.7-3.24-1.32-4.6-1.8
				c3.33-3.08,2.56-9.28,2.52-9.57c-0.05-0.34-0.32-0.6-0.65-0.64l-10.72-1.18c-0.21-0.03-0.41,0.04-0.57,0.18
				c-0.16,0.14-0.25,0.33-0.25,0.54c-0.11,4.63-2.14,7.82-3.07,9.05c-1.07-0.31-2.03-0.73-2.65-1.49c-1.04-1.27-1.31-3.38-0.79-6.26
				c0.4-0.98,4.36-9.93,15.75-10.81c5.25-0.4,10.8,0.84,15.47,2.41c1.2,2.27,2.85,4.05,5.1,5.07c2.42,1.1,4.55,1.52,6.4,1.52
				c3.88,0,6.51-1.87,7.96-3.32c1.19-1.18,1.84-2.87,1.79-4.63c-0.02-0.67-0.05-1.46-0.08-2.31c1.42,1.81,2.85,4.64,3.28,8.93
				c0.59,6.03-1.23,12.13-4.76,15.91C183.04,129.84,179.67,131.21,175.97,131.1z M172.88,133.46c-0.73,2.16-2.61,7.03-5.81,10.72
				c-3.86,4.44-11.78,3.73-22.3-2c-5.05-2.75-8.46-3.66-11.28-4.09c2.86-2.7,3.36-7.62,3.39-7.88c0.03-0.34-0.18-0.65-0.5-0.76
				l-10.19-3.52c-0.2-0.07-0.41-0.05-0.59,0.05c-0.18,0.1-0.32,0.27-0.37,0.47c-1.02,4.05-3.18,6.24-4.39,7.21
				c-0.29-0.46-0.53-0.94-0.67-1.47c-0.6-2.28,0.29-5.23,2.4-7.88c3.1-3.92,8.66-4.44,9.77-4.5l0.06,0.02
				c0.27,0.88,0.62,1.69,1.17,2.36c2.38,2.91,6.67,2.96,10.44,3c1.6,0.02,3.11,0.04,4.17,0.29c1.55,0.36,3.77,1.27,6.35,2.33
				c4.81,1.97,11.11,4.54,17.67,5.45L172.88,133.46z M154.6,148.83c-2.59,4.24-7.14,6.14-10.62,6.98
				c-6.07,1.48-11.79,0.54-13.43-0.66c-2.73-2.01-4.85-3.07-7.31-4.22c2.73-2.39,2.97-7.16,2.98-7.4c0.01-0.27-0.13-0.53-0.36-0.67
				l-7.32-4.37c-0.21-0.12-0.47-0.14-0.7-0.03c-0.22,0.11-0.38,0.32-0.42,0.56c-0.47,3.12-2.16,4.88-3.15,5.67
				c-0.88-1.45-1.29-3.2-0.52-5.22c1.32-3.48,4.06-4.21,5.07-4.36c0.86,1.28,2.27,2.57,4.6,3.51c2.82,1.14,5.05,1.37,7.21,1.6
				c3.29,0.35,6.69,0.71,12.95,4.12c3.94,2.14,7.52,3.54,10.79,4.35C154.44,148.73,154.54,148.79,154.6,148.83z M125.25,160.78
				c-3.55,0.98-7.71,0.13-11.46-2.31c2.26-1.43,3.31-4.57,3.36-4.74c0.08-0.26,0.02-0.54-0.17-0.74l-4.57-4.75
				c-0.17-0.18-0.42-0.26-0.66-0.22c-0.24,0.04-0.45,0.2-0.55,0.43c-0.79,1.79-2,2.74-2.9,3.24c0.08-0.78,0.04-1.52-0.09-2.21
				c0.25-0.85,0.67-1.49,0.93-1.89c0.96-1.46,2.27-1.81,2.92-1.9c1.44,2.51,3.98,4.53,6.57,5.78c0.98,0.48,1.87,0.89,2.69,1.27
				c2.85,1.33,4.91,2.28,7.75,4.38c0.22,0.16,0.54,0.29,0.82,0.43C128.91,159.09,127.3,160.22,125.25,160.78z M88.68,160.78
				c-2.04-0.57-3.66-1.69-4.65-3.21c0.28-0.14,0.6-0.28,0.82-0.43c2.84-2.09,4.9-3.05,7.75-4.38c0.83-0.38,1.71-0.8,2.69-1.27
				c2.59-1.25,5.13-3.27,6.57-5.78c0.66,0.09,1.97,0.44,2.92,1.9c0.47,0.71,1.42,2.19,1.05,4.22c-0.9-0.46-2.25-1.43-3.1-3.36
				c-0.1-0.23-0.31-0.39-0.55-0.43c-0.24-0.05-0.49,0.04-0.66,0.22L96.96,153c-0.19,0.2-0.25,0.48-0.17,0.74
				c0.05,0.17,1.1,3.31,3.36,4.74C96.39,160.91,92.23,161.76,88.68,160.78z M59.33,148.83c0.06-0.04,0.16-0.1,0.22-0.13
				c3.27-0.81,6.86-2.21,10.79-4.35c6.26-3.41,9.66-3.77,12.96-4.12c2.16-0.23,4.4-0.47,7.21-1.6c2.33-0.94,3.74-2.23,4.6-3.51
				c1.01,0.15,3.75,0.88,5.07,4.36c0.77,2.01,0.36,3.77-0.52,5.22c-0.99-0.8-2.68-2.57-3.15-5.67c-0.04-0.24-0.19-0.45-0.42-0.56
				c-0.23-0.11-0.48-0.09-0.7,0.03l-7.32,4.37c-0.23,0.14-0.37,0.39-0.36,0.67c0.01,0.24,0.25,5.01,2.98,7.4
				c-2.47,1.16-4.59,2.22-7.31,4.22c-1.63,1.2-7.36,2.13-13.43,0.66C66.47,154.97,61.92,153.07,59.33,148.83z M46.87,144.17
				c-3.19-3.67-5.08-8.55-5.81-10.72l0.67-0.23c6.56-0.91,12.87-3.47,17.68-5.45c2.57-1.06,4.8-1.97,6.35-2.33
				c1.07-0.25,2.57-0.27,4.17-0.29c3.78-0.05,8.06-0.1,10.44-3c0.55-0.67,0.9-1.48,1.17-2.36l0.06-0.02
				c1.11,0.06,6.65,0.57,9.77,4.51c2.11,2.66,3,5.61,2.4,7.88c-0.14,0.53-0.38,1.01-0.67,1.47c-1.21-0.97-3.37-3.16-4.39-7.21
				c-0.05-0.2-0.18-0.37-0.37-0.47c-0.18-0.1-0.4-0.12-0.59-0.05l-10.19,3.52c-0.32,0.11-0.53,0.43-0.5,0.76
				c0.02,0.26,0.53,5.18,3.39,7.88c-2.82,0.43-6.23,1.34-11.28,4.09C58.64,147.91,50.73,148.61,46.87,144.17z M28.35,127.12
				c-3.53-3.78-5.36-9.88-4.76-15.91c0.43-4.31,1.86-7.15,3.28-8.95c-0.04,0.86-0.06,1.66-0.08,2.33c-0.05,1.76,0.61,3.45,1.79,4.63
				c1.45,1.44,4.08,3.32,7.96,3.32c1.85,0,3.98-0.42,6.4-1.52c2.25-1.02,3.89-2.8,5.1-5.07c4.68-1.57,10.23-2.82,15.47-2.42
				c11.45,0.89,15.32,9.74,15.75,10.8c0.52,2.89,0.26,4.99-0.79,6.26c-0.62,0.76-1.59,1.18-2.65,1.49
				c-0.93-1.23-2.96-4.42-3.07-9.05c-0.01-0.21-0.1-0.4-0.25-0.54c-0.16-0.14-0.36-0.21-0.57-0.18L61.2,113.5
				c-0.34,0.04-0.61,0.3-0.65,0.64c-0.04,0.29-0.81,6.48,2.52,9.57c-1.36,0.48-2.89,1.1-4.6,1.8c-5.53,2.27-13.1,5.37-20.5,5.6
				C34.23,131.21,30.89,129.84,28.35,127.12z M51.14,56.19c-1.07,3.75-3.01,11.45-3,17.74c0,1.37,0.08,3.13,0.18,5.13
				c0.46,9.81,1.24,26.23-6.42,29.7c-5.84,2.65-9.52,0.76-11.58-1.29c-0.64-0.64-0.98-1.56-1.02-2.53
				c2.81-4.1,11.69-1.89,11.78-1.87c0.23,0.05,0.47,0.01,0.66-0.15c0.18-0.15,0.28-0.38,0.27-0.62l-0.6-9.32
				c-0.02-0.24-0.15-0.47-0.36-0.59c-2.97-1.77-5.7-2.34-8.13-1.69c-1.22,0.33-2.15,0.91-2.86,1.51c0.69-6.84,1.94-14.89,4.22-20.86
				C37.86,61.93,46.97,57.68,51.14,56.19z M29.84,94.63c0.3-0.45,1.41-1.93,3.46-2.49c1.94-0.51,4.17-0.07,6.65,1.33l0.51,7.94
				c-2.25-0.43-7.8-1.17-11.06,1.29L29.84,94.63z M61.96,114.9l9.33-1.03c0.28,4.09,1.87,7.02,2.94,8.57
				c-1.39,0.19-2.9,0.24-4.34,0.25c-1.74,0.02-3.38,0.04-4.7,0.35c-0.14,0.03-0.3,0.09-0.45,0.13
				C61.78,121.36,61.84,116.56,61.96,114.9z M78.61,130.65l8.87-3.07c1.18,3.94,3.31,6.14,4.64,7.2c-0.67,0.61-1.5,1.13-2.53,1.55
				c-2.5,1.01-4.38,1.2-6.55,1.44c-0.15,0.02-0.31,0.03-0.46,0.05C79.76,136.37,78.84,132.18,78.61,130.65z M98.78,145.88
				c-1.62,1.85-3.84,3.04-4.57,3.39c-0.72,0.35-1.36,0.64-1.99,0.94c-2.28-1.39-2.86-5.04-2.99-6.3l6.02-3.6
				C96,143.29,97.71,145.03,98.78,145.88z M112.41,157.53c-2.08-1.57-3.25-3.01-3.85-4.3c0.98-0.46,2.41-1.38,3.5-3.21l3.53,3.67
				C115.22,154.63,114.15,156.9,112.41,157.53z M101.52,157.53c-1.74-0.63-2.81-2.9-3.18-3.83l3.53-3.67
				c1.08,1.83,2.52,2.75,3.5,3.21C104.77,154.51,103.6,155.96,101.52,157.53z M118.68,140.3l6.02,3.6c-0.13,1.26-0.7,4.91-2.99,6.3
				c-0.63-0.3-1.27-0.59-1.99-0.94c-0.73-0.35-2.95-1.53-4.57-3.39C116.22,145.03,117.94,143.29,118.68,140.3z M126.45,127.58
				l8.87,3.07c-0.23,1.54-1.15,5.73-3.97,7.17c-0.15-0.02-0.31-0.03-0.46-0.05c-2.18-0.23-4.05-0.43-6.55-1.44
				c-1.04-0.42-1.86-0.94-2.53-1.55C123.14,133.72,125.27,131.52,126.45,127.58z M149.19,123.17c-0.15-0.04-0.31-0.1-0.45-0.13
				c-1.33-0.31-2.97-0.33-4.7-0.35c-1.44-0.02-2.94-0.06-4.34-0.25c1.07-1.55,2.66-4.48,2.94-8.57l9.33,1.03
				C152.09,116.56,152.15,121.36,149.19,123.17z M162.8,56.19c4.16,1.49,13.28,5.74,16.87,15.16c2.28,5.97,3.53,14.02,4.22,20.86
				c-0.7-0.59-1.64-1.18-2.86-1.51c-2.42-0.66-5.16-0.09-8.13,1.69c-0.21,0.12-0.35,0.35-0.36,0.59l-0.6,9.32
				c-0.02,0.24,0.08,0.47,0.27,0.62c0.19,0.15,0.43,0.2,0.66,0.15c0.09-0.02,8.97-2.23,11.78,1.87c-0.04,0.97-0.38,1.89-1.02,2.53
				c-2.06,2.05-5.74,3.95-11.58,1.29c-7.66-3.47-6.88-19.89-6.42-29.7c0.09-2,0.18-3.76,0.18-5.13
				C165.8,67.63,163.86,59.93,162.8,56.19z M184.55,102.7c-1.8-1.35-4.28-1.74-6.53-1.74c-1.84,0-3.52,0.26-4.53,0.45l0.51-7.94
				c2.47-1.4,4.7-1.84,6.63-1.34c2.04,0.54,3.17,2.04,3.48,2.49L184.55,102.7z"/>
			<path id="XMLID_1582_" class="st7" d="M172.03,108.76c5.84,2.65,9.53,0.76,11.58-1.29c0.64-0.64,0.98-1.56,1.02-2.53
				c-2.81-4.1-11.69-1.9-11.78-1.87c-0.23,0.06-0.47,0.01-0.66-0.15c-0.18-0.15-0.28-0.38-0.27-0.62l0.6-9.32
				c0.02-0.24,0.15-0.47,0.36-0.59c2.97-1.77,5.7-2.34,8.13-1.69c1.22,0.33,2.15,0.91,2.86,1.51c-0.69-6.84-1.94-14.89-4.22-20.86
				c-3.59-9.43-12.71-13.67-16.87-15.16c1.07,3.75,3.01,11.45,3,17.74c0,1.37-0.08,3.13-0.18,5.13
				C165.15,88.88,164.37,105.29,172.03,108.76z"/>
			<g id="XMLID_1569_">
				<g>
					<g id="XMLID_64_">
						<path class="st10" d="M175.7,90.24c-0.21,0.12-0.35,0.35-0.36,0.59l-0.03,0.39c2.04-0.79,3.96-0.98,5.71-0.51
							c1.22,0.33,2.15,0.91,2.86,1.51c-0.12-1.2-0.28-2.46-0.44-3.72C181.11,87.99,178.52,88.56,175.7,90.24z"/>
					</g>
					<g id="XMLID_63_">
						<path class="st9" d="M174.84,106.61c-7.66-3.47-6.88-19.89-6.42-29.7c0.09-2,0.18-3.76,0.18-5.13c0.01-4.6-1.03-9.94-2-13.95
							c-1.46-0.73-2.78-1.27-3.8-1.63c1.07,3.75,3.01,11.45,3,17.74c0,1.37-0.08,3.13-0.18,5.13c-0.46,9.81-1.24,26.23,6.42,29.7
							c5.84,2.65,9.53,0.76,11.58-1.29c0.1-0.1,0.15-0.25,0.24-0.37C181.72,108.1,178.78,108.4,174.84,106.61z"/>
					</g>
				</g>
			</g>
			<path id="XMLID_1566_" class="st8" d="M180.62,92.13c-1.93-0.51-4.16-0.06-6.63,1.34l-0.51,7.94c1.01-0.2,2.69-0.45,4.53-0.45
				c2.25,0,4.74,0.39,6.53,1.74l-0.45-8.07C183.79,94.17,182.66,92.67,180.62,92.13z"/>
			<path id="XMLID_1563_" class="st7" d="M96.78,153.73c-0.08-0.26-0.02-0.54,0.17-0.74l4.57-4.75c0.17-0.18,0.42-0.26,0.66-0.22
				c0.24,0.04,0.45,0.2,0.55,0.43c0.86,1.93,2.2,2.9,3.1,3.36c0.38-2.03-0.58-3.51-1.05-4.22c-0.96-1.46-2.27-1.81-2.92-1.9
				c-1.44,2.51-3.98,4.53-6.57,5.78c-0.98,0.48-1.87,0.89-2.69,1.27c-2.85,1.33-4.91,2.28-7.75,4.38c-0.22,0.16-0.54,0.29-0.82,0.43
				c0.99,1.51,2.6,2.64,4.65,3.21c3.55,0.98,7.71,0.13,11.46-2.31C97.88,157.04,96.83,153.9,96.78,153.73z"/>
			<path id="XMLID_1560_" class="st8" d="M101.87,150.02l-3.53,3.67c0.37,0.94,1.44,3.21,3.18,3.83c2.07-1.57,3.24-3.01,3.85-4.3
				C104.39,152.77,102.96,151.85,101.87,150.02z"/>
			<path id="XMLID_1557_" class="st8" d="M89.24,143.9c0.13,1.26,0.71,4.91,2.99,6.3c0.63-0.3,1.27-0.59,1.99-0.94
				c0.73-0.35,2.95-1.53,4.57-3.39c-1.07-0.85-2.78-2.59-3.53-5.57L89.24,143.9z"/>
			<path id="XMLID_1541_" class="st7" d="M83.38,155.15c2.73-2.01,4.85-3.07,7.31-4.22c-2.73-2.39-2.97-7.16-2.98-7.4
				c-0.01-0.27,0.13-0.53,0.36-0.67l7.32-4.37c0.21-0.13,0.47-0.14,0.7-0.03c0.22,0.11,0.38,0.32,0.42,0.56
				c0.47,3.1,2.17,4.87,3.15,5.67c0.88-1.45,1.29-3.2,0.52-5.22c-1.32-3.48-4.06-4.21-5.07-4.36c-0.86,1.28-2.27,2.57-4.6,3.51
				c-2.82,1.14-5.05,1.37-7.21,1.6c-3.29,0.35-6.69,0.71-12.96,4.12c-3.93,2.14-7.52,3.54-10.79,4.35c-0.06,0.04-0.16,0.1-0.22,0.13
				c2.59,4.24,7.14,6.14,10.62,6.98C76.02,157.28,81.75,156.35,83.38,155.15z"/>
			<path id="XMLID_1538_" class="st8" d="M82.58,137.82c0.15-0.02,0.31-0.03,0.46-0.05c2.18-0.23,4.05-0.43,6.55-1.44
				c1.04-0.42,1.86-0.94,2.53-1.55c-1.33-1.06-3.46-3.26-4.64-7.2l-8.87,3.07C78.84,132.18,79.76,136.37,82.58,137.82z"/>
			<path id="XMLID_1535_" class="st7" d="M69.16,142.18c5.05-2.75,8.46-3.66,11.28-4.09c-2.86-2.7-3.36-7.62-3.39-7.88
				c-0.03-0.34,0.18-0.65,0.5-0.76l10.19-3.52c0.2-0.07,0.41-0.05,0.59,0.05c0.18,0.1,0.32,0.27,0.37,0.47
				c1.02,4.05,3.18,6.24,4.39,7.21c0.29-0.46,0.53-0.94,0.67-1.47c0.6-2.28-0.29-5.23-2.4-7.88c-3.12-3.94-8.66-4.44-9.77-4.51
				l-0.06,0.02c-0.27,0.88-0.62,1.69-1.17,2.36c-2.38,2.91-6.67,2.96-10.44,3c-1.6,0.02-3.11,0.04-4.17,0.29
				c-1.55,0.36-3.77,1.27-6.35,2.33c-4.81,1.97-11.12,4.54-17.68,5.45l-0.67,0.23c0.73,2.16,2.62,7.05,5.81,10.72
				C50.73,148.61,58.64,147.91,69.16,142.18z"/>
			<path id="XMLID_1532_" class="st8" d="M65.19,123.05c1.33-0.31,2.97-0.33,4.7-0.35c1.44-0.02,2.94-0.06,4.34-0.25
				c-1.07-1.55-2.66-4.48-2.94-8.57l-9.33,1.03c-0.12,1.66-0.18,6.46,2.78,8.27C64.89,123.14,65.05,123.08,65.19,123.05z"/>
			<path id="XMLID_1529_" class="st7" d="M58.47,125.5c1.71-0.7,3.24-1.32,4.6-1.8c-3.33-3.08-2.56-9.28-2.52-9.57
				c0.05-0.34,0.32-0.6,0.65-0.64l10.72-1.18c0.21-0.03,0.41,0.04,0.57,0.18c0.16,0.14,0.25,0.33,0.25,0.54
				c0.11,4.63,2.14,7.82,3.07,9.05c1.07-0.31,2.03-0.73,2.65-1.49c1.04-1.27,1.31-3.38,0.79-6.26c-0.43-1.07-4.3-9.92-15.75-10.8
				c-5.24-0.4-10.8,0.85-15.47,2.42c-1.2,2.27-2.85,4.05-5.1,5.07c-2.42,1.1-4.55,1.52-6.4,1.52c-3.88,0-6.51-1.87-7.96-3.32
				c-1.19-1.18-1.84-2.87-1.79-4.63c0.02-0.67,0.05-1.47,0.08-2.33c-1.42,1.81-2.85,4.64-3.28,8.95
				c-0.59,6.03,1.23,12.13,4.76,15.91c2.54,2.72,5.89,4.1,9.62,3.98C45.37,130.87,52.94,127.76,58.47,125.5z"/>
			<g id="XMLID_1500_">
				<path id="XMLID_1525_" class="st9" d="M101.86,145.71c-0.28,0.49-0.64,0.95-0.99,1.4c0.51-0.41,0.97-0.85,1.42-1.31
					C102.14,145.76,101.98,145.72,101.86,145.71z"/>
				<path id="XMLID_1522_" class="st9" d="M82.63,119.9C82.64,119.9,82.64,119.9,82.63,119.9c-0.45-0.06-0.83-0.1-1.03-0.11
					l-0.06,0.02c-0.17,0.56-0.4,1.07-0.67,1.56C81.52,120.98,82.13,120.52,82.63,119.9z"/>
				<path id="XMLID_1514_" class="st9" d="M99.3,157.81c-2.85,1.14-5.76,1.43-8.35,0.71c-1.78-0.5-3.21-1.44-4.21-2.67
					c-0.6,0.38-1.22,0.8-1.88,1.29c-0.22,0.16-0.54,0.29-0.82,0.43c0.99,1.51,2.6,2.64,4.65,3.21c3.55,0.98,7.71,0.13,11.46-2.31
					C99.84,158.28,99.56,158.05,99.3,157.81z"/>
				<path id="XMLID_1511_" class="st9" d="M48.99,105.65c-0.32,0.1-0.66,0.19-0.97,0.29c-0.35,0.66-0.75,1.27-1.19,1.84
					C47.65,107.2,48.36,106.47,48.99,105.65z"/>
				<path id="XMLID_1507_" class="st9" d="M89.99,150.15c-1.37,0.73-2.75,1.57-4.34,2.74c-1.63,1.2-7.36,2.13-13.43,0.66
					c-3.11-0.75-7.07-2.36-9.73-5.72c-1,0.34-1.99,0.64-2.94,0.87c-0.06,0.04-0.16,0.1-0.22,0.13c2.59,4.24,7.14,6.14,10.62,6.98
					c6.07,1.47,11.8,0.54,13.43-0.66c2.73-2.01,4.85-3.07,7.31-4.22C90.43,150.69,90.21,150.42,89.99,150.15z"/>
				<path id="XMLID_1504_" class="st9" d="M63.07,123.7c-0.34-0.32-0.62-0.68-0.88-1.06c-0.48,0.19-0.95,0.38-1.46,0.59
					c-5.53,2.27-13.1,5.37-20.5,5.6c-3.73,0.11-7.08-1.26-9.62-3.98c-3.53-3.78-5.36-9.88-4.76-15.91c0.17-1.69,0.52-3.09,0.93-4.35
					c0,0,0,0,0,0c0.02-0.67,0.05-1.47,0.08-2.33c-1.42,1.81-2.85,4.64-3.28,8.95c-0.59,6.03,1.23,12.13,4.76,15.91
					c2.54,2.72,5.89,4.1,9.62,3.98c7.4-0.23,14.97-3.33,20.5-5.6C60.18,124.8,61.71,124.18,63.07,123.7z"/>
				<path id="XMLID_1501_" class="st9" d="M80.44,138.09c-0.47-0.44-0.85-0.95-1.2-1.48c-2.14,0.61-4.63,1.57-7.82,3.3
					c-10.52,5.73-18.43,6.44-22.29,2c-2.56-2.94-4.26-6.63-5.22-9.11c-0.73,0.14-1.45,0.33-2.19,0.43l-0.67,0.23
					c0.73,2.16,2.62,7.05,5.81,10.72c3.86,4.44,11.78,3.73,22.29-2C74.21,139.42,77.62,138.52,80.44,138.09z"/>
			</g>
			<path id="XMLID_1497_" class="st7" d="M30.05,92.21c0.7-0.59,1.64-1.18,2.86-1.51c2.42-0.66,5.16-0.09,8.13,1.69
				c0.21,0.12,0.35,0.35,0.36,0.59l0.6,9.32c0.02,0.24-0.08,0.47-0.27,0.62c-0.19,0.15-0.43,0.2-0.66,0.15
				c-0.09-0.02-8.97-2.23-11.78,1.87c0.04,0.97,0.38,1.89,1.02,2.53c2.06,2.05,5.74,3.95,11.58,1.29c7.66-3.47,6.88-19.89,6.42-29.7
				c-0.09-2-0.18-3.76-0.18-5.13c-0.01-6.3,1.93-14,3-17.74c-4.16,1.49-13.28,5.74-16.87,15.16C31.99,77.33,30.74,85.37,30.05,92.21
				z"/>
			<g id="XMLID_1329_">
				<g>
					<g id="XMLID_66_">
						<path class="st9" d="M39.43,91.58l-0.08-1.29c-0.02-0.24-0.15-0.47-0.36-0.59c-2.97-1.77-5.7-2.34-8.13-1.69
							c-0.12,0.03-0.21,0.09-0.33,0.13c-0.18,1.38-0.35,2.76-0.48,4.07c0.7-0.59,1.64-1.18,2.86-1.51
							C34.89,90.17,37.08,90.5,39.43,91.58z"/>
					</g>
					<g id="XMLID_65_">
						<path class="st9" d="M48.14,73.93c-0.01-6.3,1.93-14,3-17.74c-0.85,0.3-1.93,0.76-3.09,1.31c-0.96,3.99-1.96,9.21-1.95,13.74
							c0,1.37,0.08,3.13,0.18,5.13c0.46,9.81,1.24,26.23-6.42,29.7c-4.86,2.21-8.21,1.26-10.39-0.3c0.15,0.65,0.4,1.25,0.85,1.71
							c2.06,2.05,5.74,3.95,11.58,1.29c7.66-3.47,6.88-19.89,6.42-29.7C48.23,77.06,48.14,75.31,48.14,73.93z"/>
					</g>
				</g>
			</g>
			<path id="XMLID_176_" class="st8" d="M40.45,101.41l-0.51-7.94c-2.48-1.4-4.71-1.85-6.65-1.33c-2.05,0.55-3.16,2.03-3.46,2.49
				l-0.45,8.07C32.65,100.24,38.2,100.98,40.45,101.41z"/>
		</g>
	</g>
</g>
</svg>
